<svg width="90" height="25" viewBox="0 0 90 25" fill="none" xmlns="http://www.w3.org/2000/svg">
<rect width="90" height="25" rx="5" fill="#FFE1B5"/>
<path d="M10.6069 17L13.7029 8.6H15.0949L18.1669 17H16.8229L16.1029 14.948H12.6709L11.9509 17H10.6069ZM13.0309 13.94H15.7429L14.3869 10.112L13.0309 13.94ZM21.7263 15.176C21.4143 15.176 21.1263 15.14 20.8623 15.068L20.3463 15.572C20.4343 15.628 20.5423 15.676 20.6703 15.716C20.7983 15.756 20.9783 15.792 21.2103 15.824C21.4423 15.856 21.7583 15.888 22.1583 15.92C22.9503 15.992 23.5223 16.184 23.8743 16.496C24.2263 16.8 24.4023 17.208 24.4023 17.72C24.4023 18.072 24.3063 18.404 24.1143 18.716C23.9303 19.036 23.6383 19.292 23.2383 19.484C22.8463 19.684 22.3423 19.784 21.7263 19.784C20.8943 19.784 20.2183 19.624 19.6983 19.304C19.1863 18.992 18.9303 18.516 18.9303 17.876C18.9303 17.628 18.9943 17.38 19.1223 17.132C19.2583 16.892 19.4703 16.664 19.7583 16.448C19.5903 16.376 19.4423 16.3 19.3143 16.22C19.1943 16.132 19.0863 16.044 18.9903 15.956V15.668L20.0223 14.612C19.5583 14.212 19.3263 13.688 19.3263 13.04C19.3263 12.648 19.4183 12.292 19.6023 11.972C19.7943 11.644 20.0703 11.384 20.4303 11.192C20.7903 11 21.2223 10.904 21.7263 10.904C22.0623 10.904 22.3743 10.952 22.6623 11.048H24.8823V11.888L23.8263 11.948C24.0183 12.276 24.1143 12.64 24.1143 13.04C24.1143 13.44 24.0183 13.8 23.8263 14.12C23.6423 14.44 23.3703 14.696 23.0103 14.888C22.6583 15.08 22.2303 15.176 21.7263 15.176ZM21.7263 14.18C22.0943 14.18 22.3903 14.084 22.6143 13.892C22.8463 13.692 22.9623 13.412 22.9623 13.052C22.9623 12.684 22.8463 12.404 22.6143 12.212C22.3903 12.02 22.0943 11.924 21.7263 11.924C21.3503 11.924 21.0463 12.02 20.8143 12.212C20.5903 12.404 20.4783 12.684 20.4783 13.052C20.4783 13.412 20.5903 13.692 20.8143 13.892C21.0463 14.084 21.3503 14.18 21.7263 14.18ZM20.1303 17.756C20.1303 18.1 20.2823 18.356 20.5863 18.524C20.8903 18.7 21.2703 18.788 21.7263 18.788C22.1663 18.788 22.5223 18.692 22.7943 18.5C23.0663 18.316 23.2023 18.068 23.2023 17.756C23.2023 17.524 23.1103 17.324 22.9263 17.156C22.7423 16.996 22.3943 16.896 21.8823 16.856C21.4983 16.832 21.1583 16.796 20.8623 16.748C20.5823 16.9 20.3903 17.064 20.2863 17.24C20.1823 17.416 20.1303 17.588 20.1303 17.756ZM28.2129 17.144C27.4929 17.144 26.9249 16.92 26.5089 16.472C26.1009 16.024 25.8969 15.356 25.8969 14.468V11.048H27.1689V14.336C27.1689 15.488 27.6409 16.064 28.5849 16.064C29.0569 16.064 29.4449 15.896 29.7489 15.56C30.0529 15.224 30.2049 14.744 30.2049 14.12V11.048H31.4769V17H30.3489L30.2529 15.956C30.0689 16.324 29.7969 16.616 29.4369 16.832C29.0849 17.04 28.6769 17.144 28.2129 17.144ZM35.111 17.144C34.607 17.144 34.191 17.06 33.863 16.892C33.535 16.724 33.291 16.504 33.131 16.232C32.971 15.952 32.891 15.648 32.891 15.32C32.891 14.744 33.115 14.288 33.563 13.952C34.011 13.616 34.651 13.448 35.483 13.448H37.043V13.34C37.043 12.876 36.915 12.528 36.659 12.296C36.411 12.064 36.087 11.948 35.687 11.948C35.335 11.948 35.027 12.036 34.763 12.212C34.507 12.38 34.351 12.632 34.295 12.968H33.023C33.063 12.536 33.207 12.168 33.455 11.864C33.711 11.552 34.031 11.316 34.415 11.156C34.807 10.988 35.235 10.904 35.699 10.904C36.531 10.904 37.175 11.124 37.631 11.564C38.087 11.996 38.315 12.588 38.315 13.34V17H37.211L37.103 15.98C36.935 16.308 36.691 16.584 36.371 16.808C36.051 17.032 35.631 17.144 35.111 17.144ZM35.363 16.112C35.707 16.112 35.995 16.032 36.227 15.872C36.467 15.704 36.651 15.484 36.779 15.212C36.915 14.94 36.999 14.64 37.031 14.312H35.615C35.111 14.312 34.751 14.4 34.535 14.576C34.327 14.752 34.223 14.972 34.223 15.236C34.223 15.508 34.323 15.724 34.523 15.884C34.731 16.036 35.011 16.112 35.363 16.112ZM39.7981 17V11.048H40.9381L41.0461 12.176C41.2541 11.784 41.5421 11.476 41.9101 11.252C42.2861 11.02 42.7381 10.904 43.2661 10.904V12.236H42.9181C42.5661 12.236 42.2501 12.296 41.9701 12.416C41.6981 12.528 41.4781 12.724 41.3101 13.004C41.1501 13.276 41.0701 13.656 41.0701 14.144V17H39.7981ZM46.9047 17.144C46.3287 17.144 45.8207 17.008 45.3807 16.736C44.9407 16.464 44.5967 16.092 44.3487 15.62C44.1007 15.148 43.9767 14.612 43.9767 14.012C43.9767 13.412 44.1007 12.88 44.3487 12.416C44.5967 11.944 44.9407 11.576 45.3807 11.312C45.8287 11.04 46.3407 10.904 46.9167 10.904C47.3887 10.904 47.8007 10.996 48.1527 11.18C48.5127 11.364 48.7927 11.624 48.9927 11.96V8.36H50.2647V17H49.1247L48.9927 16.076C48.8007 16.356 48.5367 16.604 48.2007 16.82C47.8647 17.036 47.4327 17.144 46.9047 17.144ZM47.1327 16.04C47.6767 16.04 48.1207 15.852 48.4647 15.476C48.8167 15.1 48.9927 14.616 48.9927 14.024C48.9927 13.424 48.8167 12.94 48.4647 12.572C48.1207 12.196 47.6767 12.008 47.1327 12.008C46.5887 12.008 46.1407 12.196 45.7887 12.572C45.4367 12.94 45.2607 13.424 45.2607 14.024C45.2607 14.416 45.3407 14.764 45.5007 15.068C45.6607 15.372 45.8807 15.612 46.1607 15.788C46.4487 15.956 46.7727 16.04 47.1327 16.04ZM53.8845 17.144C53.3805 17.144 52.9645 17.06 52.6365 16.892C52.3085 16.724 52.0645 16.504 51.9045 16.232C51.7445 15.952 51.6645 15.648 51.6645 15.32C51.6645 14.744 51.8885 14.288 52.3365 13.952C52.7845 13.616 53.4245 13.448 54.2565 13.448H55.8165V13.34C55.8165 12.876 55.6885 12.528 55.4325 12.296C55.1845 12.064 54.8605 11.948 54.4605 11.948C54.1085 11.948 53.8005 12.036 53.5365 12.212C53.2805 12.38 53.1245 12.632 53.0685 12.968H51.7965C51.8365 12.536 51.9805 12.168 52.2285 11.864C52.4845 11.552 52.8045 11.316 53.1885 11.156C53.5805 10.988 54.0085 10.904 54.4725 10.904C55.3045 10.904 55.9485 11.124 56.4045 11.564C56.8605 11.996 57.0885 12.588 57.0885 13.34V17H55.9845L55.8765 15.98C55.7085 16.308 55.4645 16.584 55.1445 16.808C54.8245 17.032 54.4045 17.144 53.8845 17.144ZM54.1365 16.112C54.4805 16.112 54.7685 16.032 55.0005 15.872C55.2405 15.704 55.4245 15.484 55.5525 15.212C55.6885 14.94 55.7725 14.64 55.8045 14.312H54.3885C53.8845 14.312 53.5245 14.4 53.3085 14.576C53.1005 14.752 52.9965 14.972 52.9965 15.236C52.9965 15.508 53.0965 15.724 53.2965 15.884C53.5045 16.036 53.7845 16.112 54.1365 16.112ZM58.5716 17V11.048H59.6996L59.7956 12.092C59.9796 11.724 60.2476 11.436 60.5996 11.228C60.9596 11.012 61.3716 10.904 61.8356 10.904C62.5556 10.904 63.1196 11.128 63.5276 11.576C63.9436 12.024 64.1516 12.692 64.1516 13.58V17H62.8916V13.712C62.8916 12.56 62.4196 11.984 61.4756 11.984C61.0036 11.984 60.6116 12.152 60.2996 12.488C59.9956 12.824 59.8436 13.304 59.8436 13.928V17H58.5716ZM68.3617 17.144C67.7857 17.144 67.2777 17.008 66.8377 16.736C66.3977 16.464 66.0537 16.092 65.8057 15.62C65.5577 15.148 65.4337 14.612 65.4337 14.012C65.4337 13.412 65.5577 12.88 65.8057 12.416C66.0537 11.944 66.3977 11.576 66.8377 11.312C67.2857 11.04 67.7977 10.904 68.3737 10.904C68.8457 10.904 69.2577 10.996 69.6097 11.18C69.9697 11.364 70.2497 11.624 70.4497 11.96V8.36H71.7217V17H70.5817L70.4497 16.076C70.2577 16.356 69.9937 16.604 69.6577 16.82C69.3217 17.036 68.8897 17.144 68.3617 17.144ZM68.5897 16.04C69.1337 16.04 69.5777 15.852 69.9217 15.476C70.2737 15.1 70.4497 14.616 70.4497 14.024C70.4497 13.424 70.2737 12.94 69.9217 12.572C69.5777 12.196 69.1337 12.008 68.5897 12.008C68.0457 12.008 67.5977 12.196 67.2457 12.572C66.8937 12.94 66.7177 13.424 66.7177 14.024C66.7177 14.416 66.7977 14.764 66.9577 15.068C67.1177 15.372 67.3377 15.612 67.6177 15.788C67.9057 15.956 68.2297 16.04 68.5897 16.04ZM76.1095 17.144C75.5415 17.144 75.0295 17.016 74.5735 16.76C74.1255 16.496 73.7695 16.132 73.5055 15.668C73.2415 15.196 73.1095 14.648 73.1095 14.024C73.1095 13.4 73.2415 12.856 73.5055 12.392C73.7775 11.92 74.1415 11.556 74.5975 11.3C75.0535 11.036 75.5615 10.904 76.1215 10.904C76.6895 10.904 77.1975 11.036 77.6455 11.3C78.1015 11.556 78.4615 11.92 78.7255 12.392C78.9975 12.856 79.1335 13.4 79.1335 14.024C79.1335 14.648 78.9975 15.196 78.7255 15.668C78.4615 16.132 78.1015 16.496 77.6455 16.76C77.1895 17.016 76.6775 17.144 76.1095 17.144ZM76.1095 16.052C76.4135 16.052 76.6935 15.976 76.9495 15.824C77.2135 15.672 77.4255 15.448 77.5855 15.152C77.7455 14.848 77.8255 14.472 77.8255 14.024C77.8255 13.576 77.7455 13.204 77.5855 12.908C77.4335 12.604 77.2255 12.376 76.9615 12.224C76.7055 12.072 76.4255 11.996 76.1215 11.996C75.8175 11.996 75.5335 12.072 75.2695 12.224C75.0135 12.376 74.8055 12.604 74.6455 12.908C74.4855 13.204 74.4055 13.576 74.4055 14.024C74.4055 14.472 74.4855 14.848 74.6455 15.152C74.8055 15.448 75.0135 15.672 75.2695 15.824C75.5255 15.976 75.8055 16.052 76.1095 16.052Z" fill="black"/>
</svg>
