<svg width="26" height="26" viewBox="0 0 26 26" fill="none" xmlns="http://www.w3.org/2000/svg">
<rect width="26" height="26" rx="5" fill="#4B4EFF"/>
<path d="M11.228 5.13865L12.0703 4.27444C12.427 3.90852 13.0037 3.90852 13.3565 4.27444L20.7325 11.8382C21.0892 12.2041 21.0892 12.7959 20.7325 13.1579L13.3565 20.7256C12.9999 21.0915 12.4232 21.0915 12.0703 20.7256L11.228 19.8613C10.8675 19.4915 10.8751 18.8881 11.2432 18.5261L15.8152 14.0571H4.91061C4.40598 14.0571 4 13.6406 4 13.1229V11.8771C4 11.3594 4.40598 10.9429 4.91061 10.9429H15.8152L11.2432 6.47389C10.8713 6.11186 10.8637 5.50847 11.228 5.13865Z" fill="white"/>
</svg>
