<svg width="10" height="18" viewBox="0 0 10 18" fill="none" xmlns="http://www.w3.org/2000/svg">
<path d="M9.43275 1.32239C10.0571 1.93279 10.1061 2.78259 9.43275 3.52879L4.18695 8.99999L9.43275 14.4712C10.1061 15.2174 10.0571 16.0686 9.43275 16.6748C8.80975 17.2852 7.75695 17.246 7.17175 16.6748C6.58655 16.1064 0.868947 10.1018 0.868947 10.1018C0.720753 9.9588 0.602886 9.78742 0.522383 9.59788C0.44188 9.40834 0.40039 9.20452 0.40039 8.99859C0.40039 8.79266 0.44188 8.58884 0.522383 8.3993C0.602886 8.20976 0.720753 8.03838 0.868947 7.89539C0.868947 7.89539 6.58655 1.89359 7.17175 1.32239C7.75695 0.74979 8.80975 0.71199 9.43275 1.32239Z" fill="white"/>
</svg>
