<svg width="10" height="17" viewBox="0 0 10 17" fill="none" xmlns="http://www.w3.org/2000/svg">
<path d="M0.486807 15.7956C-0.137593 15.1852 -0.186593 14.3354 0.486807 13.5892L5.73261 8.11802L0.486808 2.64682C-0.186592 1.90062 -0.137592 1.04942 0.486808 0.443221C1.10981 -0.167178 2.16261 -0.127978 2.74781 0.443222C3.33301 1.01162 9.05061 7.01622 9.05061 7.01622C9.1988 7.15921 9.31667 7.33059 9.39717 7.52013C9.47768 7.70967 9.51916 7.91349 9.51916 8.11942C9.51916 8.32535 9.47768 8.52917 9.39717 8.71871C9.31667 8.90825 9.1988 9.07963 9.05061 9.22262C9.05061 9.22262 3.33301 15.2244 2.74781 15.7956C2.16261 16.3682 1.10981 16.406 0.486807 15.7956Z" fill="white"/>
</svg>
