<svg width="11" height="12" viewBox="0 0 11 12" fill="none" xmlns="http://www.w3.org/2000/svg">
<g clip-path="url(#clip0_1000_563)">
<path d="M10.3889 12H0.611111C0.449034 12 0.293596 11.9368 0.17899 11.8243C0.0643847 11.7117 0 11.5591 0 11.4V0.6C0 0.44087 0.0643847 0.288258 0.17899 0.175736C0.293596 0.0632141 0.449034 0 0.611111 0H10.3889C10.551 0 10.7064 0.0632141 10.821 0.175736C10.9356 0.288258 11 0.44087 11 0.6V11.4C11 11.5591 10.9356 11.7117 10.821 11.8243C10.7064 11.9368 10.551 12 10.3889 12ZM9.77778 10.8V1.2H1.22222V10.8H9.77778ZM3.05556 4.2H7.94444V5.4H3.05556V4.2ZM3.05556 6.6H7.94444V7.8H3.05556V6.6Z" fill="black"/>
</g>
<defs>
<clipPath id="clip0_1000_563">
<rect width="11" height="12" fill="white"/>
</clipPath>
</defs>
</svg>
