<svg width="81" height="25" viewBox="0 0 81 25" fill="none" xmlns="http://www.w3.org/2000/svg">
<rect width="81" height="25" rx="5" fill="#FFD2D2"/>
<path d="M10.9536 17V8.6H14.1216C14.9936 8.6 15.6536 8.804 16.1016 9.212C16.5496 9.62 16.7736 10.132 16.7736 10.748C16.7736 11.284 16.6296 11.712 16.3416 12.032C16.0536 12.344 15.7056 12.556 15.2976 12.668C15.6176 12.732 15.9016 12.86 16.1496 13.052C16.4056 13.244 16.6056 13.484 16.7496 13.772C16.8936 14.06 16.9656 14.372 16.9656 14.708C16.9656 15.14 16.8576 15.532 16.6416 15.884C16.4336 16.228 16.1256 16.5 15.7176 16.7C15.3096 16.9 14.8096 17 14.2176 17H10.9536ZM12.2256 12.2H13.9656C14.4536 12.2 14.8256 12.088 15.0816 11.864C15.3376 11.632 15.4656 11.316 15.4656 10.916C15.4656 10.524 15.3376 10.212 15.0816 9.98C14.8336 9.748 14.4536 9.632 13.9416 9.632H12.2256V12.2ZM12.2256 15.956H14.0496C14.5616 15.956 14.9576 15.836 15.2376 15.596C15.5256 15.356 15.6696 15.02 15.6696 14.588C15.6696 14.156 15.5216 13.816 15.2256 13.568C14.9296 13.312 14.5296 13.184 14.0256 13.184H12.2256V15.956ZM18.3118 17V8.36H19.5838V17H18.3118ZM23.9786 17.144C23.4106 17.144 22.8986 17.016 22.4426 16.76C21.9946 16.496 21.6386 16.132 21.3746 15.668C21.1106 15.196 20.9786 14.648 20.9786 14.024C20.9786 13.4 21.1106 12.856 21.3746 12.392C21.6466 11.92 22.0106 11.556 22.4666 11.3C22.9226 11.036 23.4306 10.904 23.9906 10.904C24.5586 10.904 25.0666 11.036 25.5146 11.3C25.9706 11.556 26.3306 11.92 26.5946 12.392C26.8666 12.856 27.0026 13.4 27.0026 14.024C27.0026 14.648 26.8666 15.196 26.5946 15.668C26.3306 16.132 25.9706 16.496 25.5146 16.76C25.0586 17.016 24.5466 17.144 23.9786 17.144ZM23.9786 16.052C24.2826 16.052 24.5626 15.976 24.8186 15.824C25.0826 15.672 25.2946 15.448 25.4546 15.152C25.6146 14.848 25.6946 14.472 25.6946 14.024C25.6946 13.576 25.6146 13.204 25.4546 12.908C25.3026 12.604 25.0946 12.376 24.8306 12.224C24.5746 12.072 24.2946 11.996 23.9906 11.996C23.6866 11.996 23.4026 12.072 23.1386 12.224C22.8826 12.376 22.6746 12.604 22.5146 12.908C22.3546 13.204 22.2746 13.576 22.2746 14.024C22.2746 14.472 22.3546 14.848 22.5146 15.152C22.6746 15.448 22.8826 15.672 23.1386 15.824C23.3946 15.976 23.6746 16.052 23.9786 16.052ZM33.1782 19.64V16.076C32.9862 16.356 32.7222 16.604 32.3862 16.82C32.0502 17.036 31.6182 17.144 31.0902 17.144C30.5142 17.144 30.0062 17.008 29.5662 16.736C29.1262 16.464 28.7822 16.092 28.5342 15.62C28.2862 15.148 28.1622 14.612 28.1622 14.012C28.1622 13.412 28.2862 12.88 28.5342 12.416C28.7822 11.944 29.1262 11.576 29.5662 11.312C30.0142 11.04 30.5262 10.904 31.1022 10.904C31.5742 10.904 31.9862 10.996 32.3382 11.18C32.6982 11.364 32.9782 11.624 33.1782 11.96L33.3102 11.048H34.4502V19.64H33.1782ZM31.3182 16.04C31.8622 16.04 32.3062 15.852 32.6502 15.476C33.0022 15.1 33.1782 14.616 33.1782 14.024C33.1782 13.424 33.0022 12.94 32.6502 12.572C32.3062 12.196 31.8622 12.008 31.3182 12.008C30.7742 12.008 30.3262 12.196 29.9742 12.572C29.6222 12.94 29.4462 13.424 29.4462 14.024C29.4462 14.416 29.5262 14.764 29.6862 15.068C29.8462 15.372 30.0662 15.612 30.3462 15.788C30.6342 15.956 30.9582 16.04 31.3182 16.04ZM38.25 17.144C37.53 17.144 36.962 16.92 36.546 16.472C36.138 16.024 35.934 15.356 35.934 14.468V11.048H37.206V14.336C37.206 15.488 37.678 16.064 38.622 16.064C39.094 16.064 39.482 15.896 39.786 15.56C40.09 15.224 40.242 14.744 40.242 14.12V11.048H41.514V17H40.386L40.29 15.956C40.106 16.324 39.834 16.616 39.474 16.832C39.122 17.04 38.714 17.144 38.25 17.144ZM45.9161 17.144C45.3321 17.144 44.8121 17.016 44.3561 16.76C43.9081 16.496 43.5561 16.132 43.3001 15.668C43.0441 15.204 42.9161 14.664 42.9161 14.048C42.9161 13.424 43.0401 12.876 43.2881 12.404C43.5441 11.932 43.8961 11.564 44.3441 11.3C44.8001 11.036 45.3281 10.904 45.9281 10.904C46.5121 10.904 47.0201 11.036 47.4521 11.3C47.8841 11.556 48.2201 11.9 48.4601 12.332C48.7001 12.764 48.8201 13.24 48.8201 13.76C48.8201 13.84 48.8161 13.928 48.8081 14.024C48.8081 14.112 48.8041 14.212 48.7961 14.324H44.1641C44.2041 14.9 44.3921 15.34 44.7281 15.644C45.0721 15.94 45.4681 16.088 45.9161 16.088C46.2761 16.088 46.5761 16.008 46.8161 15.848C47.0641 15.68 47.2481 15.456 47.3681 15.176H48.6401C48.4801 15.736 48.1601 16.204 47.6801 16.58C47.2081 16.956 46.6201 17.144 45.9161 17.144ZM45.9161 11.948C45.4921 11.948 45.1161 12.076 44.7881 12.332C44.4601 12.58 44.2601 12.956 44.1881 13.46H47.5481C47.5241 12.996 47.3601 12.628 47.0561 12.356C46.7521 12.084 46.3721 11.948 45.9161 11.948ZM52.1559 17.144C51.6519 17.144 51.2359 17.06 50.9079 16.892C50.5799 16.724 50.3359 16.504 50.1759 16.232C50.0159 15.952 49.9359 15.648 49.9359 15.32C49.9359 14.744 50.1599 14.288 50.6079 13.952C51.0559 13.616 51.6959 13.448 52.5279 13.448H54.0879V13.34C54.0879 12.876 53.9599 12.528 53.7039 12.296C53.4559 12.064 53.1319 11.948 52.7319 11.948C52.3799 11.948 52.0719 12.036 51.8079 12.212C51.5519 12.38 51.3959 12.632 51.3399 12.968H50.0679C50.1079 12.536 50.2519 12.168 50.4999 11.864C50.7559 11.552 51.0759 11.316 51.4599 11.156C51.8519 10.988 52.2799 10.904 52.7439 10.904C53.5759 10.904 54.2199 11.124 54.6759 11.564C55.1319 11.996 55.3599 12.588 55.3599 13.34V17H54.2559L54.1479 15.98C53.9799 16.308 53.7359 16.584 53.4159 16.808C53.0959 17.032 52.6759 17.144 52.1559 17.144ZM52.4079 16.112C52.7519 16.112 53.0399 16.032 53.2719 15.872C53.5119 15.704 53.6959 15.484 53.8239 15.212C53.9599 14.94 54.0439 14.64 54.0759 14.312H52.6599C52.1559 14.312 51.7959 14.4 51.5799 14.576C51.3719 14.752 51.2679 14.972 51.2679 15.236C51.2679 15.508 51.3679 15.724 51.5679 15.884C51.7759 16.036 52.0559 16.112 52.4079 16.112ZM59.5551 17.144C58.9791 17.144 58.4711 17.008 58.0311 16.736C57.5911 16.464 57.2471 16.092 56.9991 15.62C56.7511 15.148 56.6271 14.612 56.6271 14.012C56.6271 13.412 56.7511 12.88 56.9991 12.416C57.2471 11.944 57.5911 11.576 58.0311 11.312C58.4791 11.04 58.9911 10.904 59.5671 10.904C60.0391 10.904 60.4511 10.996 60.8031 11.18C61.1631 11.364 61.4431 11.624 61.6431 11.96V8.36H62.9151V17H61.7751L61.6431 16.076C61.4511 16.356 61.1871 16.604 60.8511 16.82C60.5151 17.036 60.0831 17.144 59.5551 17.144ZM59.7831 16.04C60.3271 16.04 60.7711 15.852 61.1151 15.476C61.4671 15.1 61.6431 14.616 61.6431 14.024C61.6431 13.424 61.4671 12.94 61.1151 12.572C60.7711 12.196 60.3271 12.008 59.7831 12.008C59.2391 12.008 58.7911 12.196 58.4391 12.572C58.0871 12.94 57.9111 13.424 57.9111 14.024C57.9111 14.416 57.9911 14.764 58.1511 15.068C58.3111 15.372 58.5311 15.612 58.8111 15.788C59.0991 15.956 59.4231 16.04 59.7831 16.04ZM67.3028 17.144C66.7348 17.144 66.2228 17.016 65.7668 16.76C65.3188 16.496 64.9628 16.132 64.6988 15.668C64.4348 15.196 64.3028 14.648 64.3028 14.024C64.3028 13.4 64.4348 12.856 64.6988 12.392C64.9708 11.92 65.3348 11.556 65.7908 11.3C66.2468 11.036 66.7548 10.904 67.3148 10.904C67.8828 10.904 68.3908 11.036 68.8388 11.3C69.2948 11.556 69.6548 11.92 69.9188 12.392C70.1908 12.856 70.3268 13.4 70.3268 14.024C70.3268 14.648 70.1908 15.196 69.9188 15.668C69.6548 16.132 69.2948 16.496 68.8388 16.76C68.3828 17.016 67.8708 17.144 67.3028 17.144ZM67.3028 16.052C67.6068 16.052 67.8868 15.976 68.1428 15.824C68.4068 15.672 68.6188 15.448 68.7788 15.152C68.9388 14.848 69.0188 14.472 69.0188 14.024C69.0188 13.576 68.9388 13.204 68.7788 12.908C68.6268 12.604 68.4188 12.376 68.1548 12.224C67.8988 12.072 67.6188 11.996 67.3148 11.996C67.0108 11.996 66.7268 12.072 66.4628 12.224C66.2068 12.376 65.9988 12.604 65.8388 12.908C65.6788 13.204 65.5988 13.576 65.5988 14.024C65.5988 14.472 65.6788 14.848 65.8388 15.152C65.9988 15.448 66.2068 15.672 66.4628 15.824C66.7188 15.976 66.9988 16.052 67.3028 16.052Z" fill="black"/>
</svg>
