<svg width="32" height="30" viewBox="0 0 32 30" fill="none" xmlns="http://www.w3.org/2000/svg">
<path d="M23.5296 12.4121V0.64719H10.1181V7.14154H0V29.3372H10.1181V29.3527H32V12.4117H23.5296V12.4121ZM6.67005 28.3964V23.0592H4.38958V28.3964H0.941444V8.08253H10.1181V28.3964H6.67005ZM31.0587 28.4118H19.137V18.9217H15.0586V28.4118H11.059V7.14154V1.5887H22.588V13.3536H31.0587V28.4118ZM12.2786 3.86272H14.2397V8.22408H12.2786V3.86272ZM16.0363 3.86272H17.9966V8.22408H16.0363V3.86272ZM19.6508 3.86272H21.612V8.22408H19.6508V3.86272ZM12.2786 10.5604H14.2397V15.3925H12.2786V10.5604ZM16.0363 10.5604H17.9966V15.3925H16.0363V10.5604ZM19.6508 10.5604H21.612V15.3925H19.6508V10.5604ZM25.1018 19.9496H23.1414V15.4705H25.1018V19.9496ZM25.1018 27.1178H23.1414V22.5213H25.1018V27.1178ZM29.2189 19.9496H27.2586V15.4705H29.2189V19.9496ZM29.2189 27.1178H27.2586V22.5213H29.2189V27.1178ZM2.49061 9.64719H4.45105V14.1259H2.49061V9.64719ZM2.49061 16.6974H4.45105V21.2938H2.49061V16.6974ZM6.60793 9.64719H8.56831V14.1259H6.60793V9.64719ZM6.60793 16.6974H8.56831V21.2938H6.60793V16.6974Z" fill="white"/>
</svg>
