<svg width="12" height="12" viewBox="0 0 12 12" fill="none" xmlns="http://www.w3.org/2000/svg">
<g clip-path="url(#clip0_1000_523)">
<path d="M5.99877 6.4089C7.75922 6.4089 9.21607 5.00592 9.21607 3.21853C9.21607 1.43113 7.75922 0.00122261 5.99877 0.00122261C4.23831 0.00122261 2.78146 1.4042 2.78146 3.19159C2.78146 4.97898 4.23831 6.4089 5.99877 6.4089ZM5.99877 0.997754C7.22301 0.997754 8.21954 1.99429 8.21954 3.19404C8.21954 4.3938 7.22301 5.38788 5.99877 5.38788C4.77453 5.38788 3.778 4.39135 3.778 3.19159C3.778 1.99184 4.77453 0.997754 5.99877 0.997754Z" fill="black"/>
<path d="M8.16813 6.71496C7.96491 6.66354 7.75923 6.71496 7.63191 6.86921L5.99878 8.7325L4.36564 6.86921C4.23832 6.71496 4.00816 6.66599 3.82942 6.71496C1.50581 7.48133 0 9.36911 0 11.487C0 11.7686 0.230157 11.9988 0.511732 11.9988H11.4883C11.7698 11.9988 12 11.7686 12 11.487C11.9976 9.36911 10.4917 7.48133 8.16813 6.71496ZM1.0455 11.0022C1.25117 9.59927 2.27219 8.39951 3.85391 7.78739L5.6413 9.82942C5.82004 10.0596 6.202 10.0596 6.38074 9.82942L8.16813 7.78739C9.72536 8.39951 10.7733 9.62375 10.9765 11.0022H1.0455V11.0022Z" fill="black"/>
</g>
<defs>
<clipPath id="clip0_1000_523">
<rect width="12" height="12" fill="white"/>
</clipPath>
</defs>
</svg>
