<svg width="12" height="12" viewBox="0 0 12 12" fill="none" xmlns="http://www.w3.org/2000/svg">
<g clip-path="url(#clip0_1000_543)">
<path d="M3.49413 6.14868C3.49413 5.82554 3.26975 5.63269 2.87378 5.63269C2.71226 5.63269 2.60283 5.64827 2.54544 5.66389V6.70151C2.61328 6.71692 2.69668 6.72219 2.81106 6.72219C3.23352 6.72219 3.49413 6.50848 3.49413 6.14868Z" fill="black"/>
<path d="M5.94497 5.6431C5.76752 5.6431 5.6531 5.65873 5.58508 5.67437V7.97334C5.65297 7.98922 5.76247 7.98922 5.86155 7.98922C6.58088 7.99425 7.05009 7.59824 7.05009 6.75885C7.05536 6.02872 6.62776 5.6431 5.94497 5.6431Z" fill="black"/>
<path d="M10.6411 4.29234H10.3529V2.90202C10.3529 2.89335 10.3516 2.88461 10.3504 2.87583C10.3499 2.82063 10.3324 2.7664 10.2946 2.72344L7.98093 0.0804792C7.98024 0.0798038 7.97956 0.0795641 7.97908 0.0788234C7.96529 0.0634204 7.94921 0.0506099 7.93222 0.0395206C7.92718 0.0361437 7.92211 0.0333115 7.91684 0.0303921C7.90211 0.0223529 7.88649 0.0156862 7.87041 0.0108714C7.86605 0.0096514 7.86213 0.00786491 7.85777 0.00673201C7.8403 0.00259259 7.82215 0 7.80376 0H2.11765C1.858 0 1.64707 0.211176 1.64707 0.470609V4.29224H1.35898C0.987547 4.29224 0.686371 4.59328 0.686371 4.96485V8.46256C0.686371 8.83386 0.987547 9.1351 1.35898 9.1351H1.64709V11.5294C1.64709 11.7888 1.85802 12 2.11768 12H9.88237C10.1418 12 10.353 11.7888 10.353 11.5294V9.1351H10.6411C11.0124 9.1351 11.3137 8.83386 11.3137 8.46256V4.96496C11.3136 4.59341 11.0124 4.29234 10.6411 4.29234ZM2.11765 0.470696H7.56847V2.87838C7.56847 3.00838 7.67394 3.11368 7.80376 3.11368H9.88234V4.2925H2.11765V0.470696ZM7.89453 6.73251C7.89453 7.40519 7.64958 7.869 7.31021 8.15589C6.94048 8.46345 6.37732 8.60935 5.68939 8.60935C5.27763 8.60935 4.98575 8.58327 4.78741 8.5573V5.10598C5.07933 5.05916 5.46013 5.03308 5.86157 5.03308C6.52849 5.03308 6.9613 5.15308 7.30032 5.40838C7.66509 5.67951 7.89453 6.11212 7.89453 6.73251ZM1.75818 8.57295V5.10598C2.00308 5.0645 2.34733 5.03308 2.83216 5.03308C3.32216 5.03308 3.67153 5.12694 3.90604 5.31474C4.13026 5.49189 4.28109 5.78389 4.28109 6.12798C4.28109 6.47219 4.16671 6.7641 3.95802 6.96208C3.68695 7.21759 3.28558 7.33236 2.81626 7.33236C2.71216 7.33236 2.618 7.32707 2.54534 7.31661V8.57303H1.75818V8.57295ZM9.88237 11.402H2.11765V9.1351H9.88234V11.402H9.88237ZM10.5642 5.71082H9.2137V6.51367H10.4754V7.16016H9.2137V8.57297H8.41647V5.05916H10.5642V5.71082Z" fill="black"/>
</g>
<defs>
<clipPath id="clip0_1000_543">
<rect width="12" height="12" fill="white"/>
</clipPath>
</defs>
</svg>
