<?xml version="1.0" encoding="iso-8859-1"?>
<!-- Uploaded to: SVG Repo, www.svgrepo.com, Generator: SVG Repo Mixer Tools -->
<svg fill="white" height="800px" width="800px" version="1.1" id="Capa_1" xmlns="http://www.w3.org/2000/svg" xmlns:xlink="http://www.w3.org/1999/xlink" 
	 viewBox="0 0 481.309 481.309" xml:space="preserve">
<g>
	<path d="M479.005,221.137l-15.76-29.718c2.899-1.037,4.978-3.8,4.978-7.056c0-4.142-3.357-7.5-7.5-7.5
		c-3.318,0-6.583,0.22-9.799,0.603c-0.352,0.019-0.704,0.057-1.054,0.127c-37.897,5.009-67.762,35.845-71.237,74.198h-5.415v-91.614
		H462.5c4.143,0,7.5-3.358,7.5-7.5V74.322c0-4.142-3.357-7.5-7.5-7.5h-20.982c-11.617-24.417-36.704-40.49-63.987-40.49
		c-27.282,0-52.369,16.074-63.986,40.49h-14.557c-10.543-22.16-32.182-37.446-56.487-40.083v-15.78c0-4.142-3.357-7.5-7.5-7.5
		s-7.5,3.358-7.5,7.5v15.78c-24.305,2.637-45.943,17.923-56.486,40.083h-14.557c-11.617-24.417-36.704-40.49-63.986-40.49
		c-27.283,0-52.37,16.074-63.987,40.49H7.5c-4.143,0-7.5,3.358-7.5,7.5v78.355c0,4.142,3.357,7.5,7.5,7.5h111.887v91.614H69.499
		h-26.87c-17.273,0-31.326,14.053-31.326,31.326v30.67c0,4.142,3.357,7.5,7.5,7.5s7.5-3.358,7.5-7.5v-30.67
		c0-9.002,7.324-16.326,16.326-16.326h0.146c-2.917,4.757-4.602,10.348-4.602,16.326v50.041H27.759c-4.143,0-7.5,3.358-7.5,7.5
		v45.092l-6.76,6.76c-2.929,2.929-2.929,7.678,0.001,10.606c1.464,1.465,3.384,2.197,5.303,2.197s3.839-0.732,5.304-2.197
		l8.956-8.957c1.406-1.407,2.196-3.314,2.196-5.303v-40.698h17.783v37.591l-6.76,6.76c-2.93,2.929-2.93,7.677-0.001,10.606
		c1.465,1.465,3.384,2.197,5.304,2.197c1.919,0,3.839-0.732,5.303-2.197l8.957-8.957c1.407-1.406,2.197-3.314,2.197-5.303v-41.629
		c9.532-2.365,17.507-9.117,21.354-18.19h29.991v92.961H7.5c-4.143,0-7.5,3.358-7.5,7.5v40.851c0,4.142,3.357,7.5,7.5,7.5h455
		c4.143,0,7.5-3.358,7.5-7.5v-40.851c0-4.142-3.357-7.5-7.5-7.5h-89.282v-92.961h32.074c4.821,11.372,16.119,19.12,28.854,19.12
		h25.283v19.678l-6.761,6.76c-2.929,2.929-2.929,7.678,0,10.606c1.465,1.464,3.385,2.197,5.304,2.197s3.839-0.732,5.304-2.197
		l8.957-8.957c1.406-1.406,2.196-3.314,2.196-5.303v-49.404c0-4.142-3.357-7.5-7.5-7.5h-17.921v-65.283
		c0-1.045,0.076-2.08,0.191-3.108c1.938,1.574,4.177,2.78,6.636,3.535c1.908,0.585,3.859,0.876,5.801,0.876
		c3.173,0,6.317-0.775,9.199-2.304c4.646-2.464,8.055-6.589,9.598-11.617C481.977,231.11,481.469,225.783,479.005,221.137z
		 M15,130.177h387.5c4.143,0,7.5-3.358,7.5-7.5s-3.357-7.5-7.5-7.5H15V81.822h18.414c3.099,0,5.878-1.905,6.995-4.795
		c8.257-21.351,29.18-35.695,52.062-35.695s43.804,14.345,52.061,35.695c1.117,2.89,3.896,4.795,6.995,4.795h24.418
		c3.099,0,5.878-1.905,6.995-4.795c8.257-21.351,29.179-35.695,52.061-35.695s43.805,14.345,52.062,35.695
		c1.117,2.89,3.896,4.795,6.995,4.795h24.418c3.099,0,5.878-1.905,6.995-4.795c8.257-21.351,29.179-35.695,52.061-35.695
		c22.883,0,43.805,14.345,52.062,35.695c1.117,2.89,3.896,4.795,6.995,4.795H455v33.355h-22.5c-4.143,0-7.5,3.358-7.5,7.5
		s3.357,7.5,7.5,7.5H455v15H15V130.177z M60.542,333.158h-7.369v-50.041c0-9.002,7.324-16.326,16.326-16.326h57.378
		c0.02,0,20.088,0,20.088,0c4.143,0,7.5-3.358,7.5-7.5c0-32.557,23.195-59.798,53.928-66.068l18.53,34.942
		c0.587,1.106,0.708,2.375,0.341,3.572c-0.368,1.197-1.179,2.179-2.285,2.766c-2.284,1.21-5.128,0.338-6.339-1.944l-7.929-14.951
		c-1.94-3.659-6.479-5.053-10.14-3.112c-3.659,1.94-5.053,6.48-3.112,10.14l2.441,4.603c-3.099,6.01-4.721,12.675-4.721,19.518
		v72.783c0,4.142,3.357,7.5,7.5,7.5h17.92v4.12h-25.283c-7.548,0-14.112-5.224-15.858-12.5v-15.619c0-4.142-3.357-7.5-7.5-7.5
		s-7.5,3.358-7.5,7.5v9H91.401v-25.499c0-4.142-3.357-7.5-7.5-7.5s-7.5,3.358-7.5,7.5v32.118
		C74.655,327.933,68.09,333.158,60.542,333.158z M455,462.85H15v-25.851h440V462.85z M358.218,421.999H134.387v-92.961h32.075
		c4.82,11.372,16.118,19.12,28.854,19.12h25.283v19.678l-6.76,6.76c-2.929,2.929-2.929,7.678,0.001,10.607
		c1.464,1.464,3.384,2.196,5.303,2.196s3.839-0.732,5.304-2.197l8.956-8.957c1.406-1.407,2.196-3.314,2.196-5.303v-49.404
		c0-4.142-3.357-7.5-7.5-7.5h-17.92v-65.283c0-1.049,0.077-2.088,0.193-3.12c3.523,2.854,7.935,4.411,12.443,4.41
		c3.108,0,6.26-0.737,9.191-2.292c4.646-2.464,8.055-6.589,9.598-11.617c1.543-5.028,1.035-10.355-1.429-15l-15.76-29.718
		c2.9-1.037,4.978-3.8,4.978-7.056c0-4.142-3.357-7.5-7.5-7.5c-3.318,0-6.583,0.22-9.799,0.603
		c-0.352,0.019-0.704,0.057-1.054,0.127c-37.897,5.009-67.762,35.845-71.237,74.198h-5.416v-91.614h223.831v91.614h-49.889h-26.87
		c-17.273,0-31.326,14.053-31.326,31.326v30.67c0,4.142,3.357,7.5,7.5,7.5s7.5-3.358,7.5-7.5v-30.67
		c0-9.002,7.324-16.326,16.326-16.326h0.146c-2.917,4.757-4.602,10.348-4.602,16.326v50.041h-10.414c-4.143,0-7.5,3.358-7.5,7.5
		v45.092l-6.76,6.76c-2.929,2.929-2.929,7.678,0.001,10.606c1.464,1.465,3.384,2.197,5.303,2.197s3.839-0.732,5.304-2.197
		l8.956-8.957c1.406-1.407,2.196-3.314,2.196-5.303v-40.698h17.783v37.592l-6.76,6.76c-2.929,2.929-2.929,7.678,0.001,10.606
		c1.464,1.465,3.384,2.197,5.303,2.197s3.839-0.732,5.304-2.197l8.956-8.957c1.406-1.407,2.196-3.314,2.196-5.303v-41.628
		c9.533-2.365,17.508-9.117,21.354-18.19h29.991V421.999z M466.094,231.737c-0.368,1.197-1.179,2.179-2.286,2.766
		c-1.105,0.588-2.376,0.707-3.571,0.34c-1.197-0.368-2.179-1.179-2.766-2.285l-7.93-14.951c-1.939-3.659-6.48-5.053-10.14-3.112
		c-3.66,1.941-5.053,6.481-3.112,10.14l2.441,4.602c-3.099,6.01-4.721,12.675-4.721,19.518v72.783c0,4.142,3.357,7.5,7.5,7.5h17.921
		v4.12h-25.283c-7.548,0-14.113-5.224-15.859-12.5v-15.619c0-4.142-3.357-7.5-7.5-7.5s-7.5,3.358-7.5,7.5v9h-73.056v-25.499
		c0-4.142-3.357-7.5-7.5-7.5s-7.5,3.358-7.5,7.5v32.118c-1.746,7.276-8.311,12.5-15.859,12.5h-7.369v-50.041
		c0-9.002,7.324-16.326,16.326-16.326h57.379c0.02,0,20.087,0,20.087,0c4.143,0,7.5-3.358,7.5-7.5
		c0-32.557,23.195-59.798,53.928-66.068l18.53,34.942C466.34,229.271,466.461,230.539,466.094,231.737z"/>
</g>
</svg>