<svg width="32" height="32" viewBox="0 0 32 32" fill="none" xmlns="http://www.w3.org/2000/svg">
<path d="M15.5 14.5V12.5C15.5 12.224 15.724 12 16 12C16.276 12 16.5 12.224 16.5 12.5V14.5C16.5 14.776 16.276 15 16 15C15.724 15 15.5 14.776 15.5 14.5ZM16 25C16.276 25 16.5 24.776 16.5 24.5V22.5C16.5 22.224 16.276 22 16 22C15.724 22 15.5 22.224 15.5 22.5V24.5C15.5 24.776 15.724 25 16 25ZM16 10C16.276 10 16.5 9.776 16.5 9.5V7.5C16.5 7.224 16.276 7 16 7C15.724 7 15.5 7.224 15.5 7.5V9.5C15.5 9.776 15.724 10 16 10ZM21.8 22.805C21.995 22.61 21.995 22.293 21.8 22.098L20.386 20.684C20.191 20.489 19.874 20.489 19.679 20.684C19.484 20.879 19.484 21.196 19.679 21.391L21.093 22.805C21.289 23 21.605 23 21.8 22.805ZM30 16C30 23.72 23.72 30 16 30C8.28 30 2 23.72 2 16C2 8.28 8.28 2 16 2C23.72 2 30 8.28 30 16ZM29 16C29 9 23.436 3.291 16.5 3.025V4.5C16.5 4.776 16.276 5 16 5C15.724 5 15.5 4.776 15.5 4.5V3.025C8.564 3.291 3 9 3 16C3 23 8.564 28.709 15.5 28.975V27.5C15.5 27.224 15.724 27 16 27C16.276 27 16.5 27.224 16.5 27.5V28.978C19.453 28.865 22.16 27.773 24.292 26.004L23.215 24.927C23.02 24.732 23.02 24.415 23.215 24.22C23.41 24.025 23.727 24.025 23.922 24.22L25.033 25.331C27.474 22.965 29 19.66 29 16ZM17.768 18.561L16.354 17.147C16.308 17.101 16.253 17.064 16.191 17.039C16.069 16.988 15.931 16.988 15.809 17.039C15.686 17.09 15.589 17.187 15.538 17.31C15.513 17.37 15.501 17.433 15.5 17.497C15.5 17.498 15.499 17.499 15.499 17.5V19.5C15.499 19.776 15.723 20 15.999 20C16.275 20 16.499 19.776 16.499 19.5V18.707L17.06 19.268C17.255 19.463 17.572 19.463 17.767 19.268C17.962 19.073 17.963 18.756 17.768 18.561Z" fill="white"/>
</svg>
