<svg width="32" height="32" viewBox="0 0 32 32" fill="none" xmlns="http://www.w3.org/2000/svg">
<circle cx="16" cy="16" r="16" fill="#004CC6"/>
<path d="M19.4327 8.32239C20.0571 8.93279 20.1061 9.78259 19.4327 10.5288L14.1869 16L19.4327 21.4712C20.1061 22.2174 20.0571 23.0686 19.4327 23.6748C18.8097 24.2852 17.7569 24.246 17.1717 23.6748C16.5865 23.1064 10.8689 17.1018 10.8689 17.1018C10.7208 16.9588 10.6029 16.7874 10.5224 16.5979C10.4419 16.4083 10.4004 16.2045 10.4004 15.9986C10.4004 15.7927 10.4419 15.5888 10.5224 15.3993C10.6029 15.2098 10.7208 15.0384 10.8689 14.8954C10.8689 14.8954 16.5865 8.89359 17.1717 8.32239C17.7569 7.74979 18.8097 7.71199 19.4327 8.32239Z" fill="white"/>
</svg>
