<svg width="32" height="32" viewBox="0 0 32 32" fill="none" xmlns="http://www.w3.org/2000/svg">
<circle cx="16" cy="16" r="16" fill="#004CC6"/>
<path d="M12.4868 23.7956C11.8624 23.1852 11.8134 22.3354 12.4868 21.5892L17.7326 16.118L12.4868 10.6468C11.8134 9.90062 11.8624 9.04942 12.4868 8.44322C13.1098 7.83282 14.1626 7.87202 14.7478 8.44322C15.333 9.01162 21.0506 15.0162 21.0506 15.0162C21.1988 15.1592 21.3167 15.3306 21.3972 15.5201C21.4777 15.7097 21.5192 15.9135 21.5192 16.1194C21.5192 16.3254 21.4777 16.5292 21.3972 16.7187C21.3167 16.9083 21.1988 17.0796 21.0506 17.2226C21.0506 17.2226 15.333 23.2244 14.7478 23.7956C14.1626 24.3682 13.1098 24.406 12.4868 23.7956Z" fill="white"/>
</svg>
