<svg width="28" height="28" viewBox="0 0 28 28" fill="none" xmlns="http://www.w3.org/2000/svg">
<g clip-path="url(#clip0_316_811)">
<path d="M15.5991 1.738V4.336L16.3991 4.543C17.3041 4.777 18.1671 5.14 18.9651 5.624L19.6801 6.058L21.5401 4.198L23.8021 6.46L21.9141 8.348L22.3211 9.056C22.7721 9.841 23.1091 10.691 23.3231 11.583L23.5191 12.4H26.2631V15.599H23.4571L23.2411 16.381C23.0081 17.225 22.6581 18.035 22.2011 18.787L21.7671 19.503L23.8031 21.538L21.5411 23.8L19.4771 21.736L18.7701 22.143C18.0361 22.565 17.2391 22.888 16.4021 23.104L15.6021 23.31V26.261H12.4031V23.31L11.6031 23.104C10.7661 22.888 9.9691 22.565 9.2351 22.143L8.5271 21.736L6.4631 23.8L4.2011 21.538L6.2371 19.503L5.8031 18.787C5.3461 18.034 4.9961 17.225 4.7631 16.381L4.5471 15.599H1.7411V12.4H4.4851L4.6811 11.583C4.8941 10.692 5.2321 9.841 5.6831 9.056L6.0901 8.348L4.2021 6.46L6.4641 4.198L8.3241 6.058L9.03909 5.624C9.8371 5.14 10.7001 4.776 11.6051 4.543L12.4051 4.336V1.738H15.6041H15.5991ZM14.0001 18.799C16.6461 18.799 18.7981 16.646 18.7981 14C18.7981 11.354 16.6461 9.201 14.0001 9.201C11.3541 9.201 9.2021 11.354 9.2021 14C9.2021 16.646 11.3541 18.799 14.0001 18.799ZM16.6661 0.671997H11.3351V3.511C10.3171 3.774 9.3601 4.181 8.4831 4.713L6.4611 2.691L2.6921 6.461L4.7571 8.526C4.2591 9.393 3.8821 10.336 3.6431 11.335H0.673096V16.666H3.7331C3.9961 17.619 4.3881 18.516 4.8891 19.342L2.6911 21.54L6.4601 25.31L8.7011 23.069C9.5171 23.538 10.4011 23.897 11.3341 24.138V27.329H16.6651V24.138C17.5981 23.897 18.4821 23.538 19.2981 23.069L21.5391 25.31L25.3081 21.54L23.1101 19.342C23.6111 18.516 24.0031 17.619 24.2661 16.666H27.3261V11.335H24.3561C24.1171 10.336 23.7401 9.394 23.2421 8.526L25.3071 6.461L21.5381 2.691L19.5161 4.713C18.6391 4.181 17.6821 3.774 16.6641 3.511V0.671997H16.6661ZM14.0001 17.733C11.9381 17.733 10.2681 16.062 10.2681 14C10.2681 11.938 11.9381 10.268 14.0001 10.268C16.0621 10.268 17.7321 11.939 17.7321 14C17.7321 16.062 16.0621 17.733 14.0001 17.733Z" fill="white"/>
</g>
<defs>
<clipPath id="clip0_316_811">
<rect width="28" height="28" fill="white"/>
</clipPath>
</defs>
</svg>
