<svg width="116" height="30" viewBox="0 0 116 30" fill="none" xmlns="http://www.w3.org/2000/svg">
<rect width="116" height="30" rx="4" fill="#4B4EFF"/>
<path d="M40.5405 15.114C40.5405 14.162 40.7598 13.308 41.1985 12.552C41.6465 11.796 42.2485 11.208 43.0045 10.788C43.7698 10.3587 44.6051 10.144 45.5105 10.144C46.5465 10.144 47.4658 10.4007 48.2685 10.914C49.0805 11.418 49.6685 12.1367 50.0325 13.07H48.1145C47.8625 12.5567 47.5125 12.174 47.0645 11.922C46.6165 11.67 46.0985 11.544 45.5105 11.544C44.8665 11.544 44.2925 11.6887 43.7885 11.978C43.2845 12.2673 42.8878 12.6827 42.5985 13.224C42.3185 13.7653 42.1785 14.3953 42.1785 15.114C42.1785 15.8327 42.3185 16.4627 42.5985 17.004C42.8878 17.5453 43.2845 17.9653 43.7885 18.264C44.2925 18.5533 44.8665 18.698 45.5105 18.698C46.0985 18.698 46.6165 18.572 47.0645 18.32C47.5125 18.068 47.8625 17.6853 48.1145 17.172H50.0325C49.6685 18.1053 49.0805 18.824 48.2685 19.328C47.4658 19.832 46.5465 20.084 45.5105 20.084C44.5958 20.084 43.7605 19.874 43.0045 19.454C42.2485 19.0247 41.6465 18.432 41.1985 17.676C40.7598 16.92 40.5405 16.066 40.5405 15.114ZM55.2466 20.126C54.5186 20.126 53.8606 19.9627 53.2726 19.636C52.6846 19.3 52.2226 18.8333 51.8866 18.236C51.5506 17.6293 51.3826 16.9293 51.3826 16.136C51.3826 15.352 51.5553 14.6567 51.9006 14.05C52.2459 13.4433 52.7173 12.9767 53.3146 12.65C53.9119 12.3233 54.5793 12.16 55.3166 12.16C56.0539 12.16 56.7213 12.3233 57.3186 12.65C57.9159 12.9767 58.3873 13.4433 58.7326 14.05C59.0779 14.6567 59.2506 15.352 59.2506 16.136C59.2506 16.92 59.0733 17.6153 58.7186 18.222C58.3639 18.8287 57.8786 19.3 57.2626 19.636C56.6559 19.9627 55.9839 20.126 55.2466 20.126ZM55.2466 18.74C55.6573 18.74 56.0399 18.642 56.3946 18.446C56.7586 18.25 57.0526 17.956 57.2766 17.564C57.5006 17.172 57.6126 16.696 57.6126 16.136C57.6126 15.576 57.5053 15.1047 57.2906 14.722C57.0759 14.33 56.7913 14.036 56.4366 13.84C56.0819 13.644 55.6993 13.546 55.2886 13.546C54.8779 13.546 54.4953 13.644 54.1406 13.84C53.7953 14.036 53.5199 14.33 53.3146 14.722C53.1093 15.1047 53.0066 15.576 53.0066 16.136C53.0066 16.9667 53.2166 17.6107 53.6366 18.068C54.0659 18.516 54.6026 18.74 55.2466 18.74ZM64.7203 12.16C65.327 12.16 65.8683 12.286 66.3443 12.538C66.8297 12.79 67.2077 13.1633 67.4783 13.658C67.749 14.1527 67.8843 14.75 67.8843 15.45V20H66.3023V15.688C66.3023 14.9973 66.1297 14.47 65.7843 14.106C65.439 13.7327 64.9677 13.546 64.3703 13.546C63.773 13.546 63.297 13.7327 62.9423 14.106C62.597 14.47 62.4243 14.9973 62.4243 15.688V20H60.8283V12.286H62.4243V13.168C62.6857 12.8507 63.017 12.6033 63.4183 12.426C63.829 12.2487 64.263 12.16 64.7203 12.16ZM72.9021 18.572L75.0861 12.286H76.7801L73.8401 20H71.9361L69.0101 12.286H70.7181L72.9021 18.572ZM78.7985 11.264C78.5092 11.264 78.2665 11.166 78.0705 10.97C77.8745 10.774 77.7765 10.5313 77.7765 10.242C77.7765 9.95267 77.8745 9.71 78.0705 9.514C78.2665 9.318 78.5092 9.22 78.7985 9.22C79.0785 9.22 79.3165 9.318 79.5125 9.514C79.7085 9.71 79.8065 9.95267 79.8065 10.242C79.8065 10.5313 79.7085 10.774 79.5125 10.97C79.3165 11.166 79.0785 11.264 78.7985 11.264ZM79.5825 12.286V20H77.9865V12.286H79.5825ZM81.1459 16.108C81.1459 15.3333 81.3046 14.6473 81.6219 14.05C81.9486 13.4527 82.3873 12.9907 82.9379 12.664C83.4979 12.328 84.1186 12.16 84.7999 12.16C85.3039 12.16 85.7986 12.272 86.2839 12.496C86.7786 12.7107 87.1706 13 87.4599 13.364V9.64H89.0699V20H87.4599V18.838C87.1986 19.2113 86.8346 19.5193 86.3679 19.762C85.9106 20.0047 85.3833 20.126 84.7859 20.126C84.1139 20.126 83.4979 19.958 82.9379 19.622C82.3873 19.2767 81.9486 18.8007 81.6219 18.194C81.3046 17.578 81.1459 16.8827 81.1459 16.108ZM87.4599 16.136C87.4599 15.604 87.3479 15.142 87.1239 14.75C86.9093 14.358 86.6246 14.0593 86.2699 13.854C85.9153 13.6487 85.5326 13.546 85.1219 13.546C84.7113 13.546 84.3286 13.6487 83.9739 13.854C83.6193 14.05 83.3299 14.344 83.1059 14.736C82.8913 15.1187 82.7839 15.576 82.7839 16.108C82.7839 16.64 82.8913 17.1067 83.1059 17.508C83.3299 17.9093 83.6193 18.2173 83.9739 18.432C84.3379 18.6373 84.7206 18.74 85.1219 18.74C85.5326 18.74 85.9153 18.6373 86.2699 18.432C86.6246 18.2267 86.9093 17.928 87.1239 17.536C87.3479 17.1347 87.4599 16.668 87.4599 16.136ZM90.6342 16.108C90.6342 15.3333 90.7929 14.6473 91.1102 14.05C91.4369 13.4527 91.8755 12.9907 92.4262 12.664C92.9862 12.328 93.6022 12.16 94.2742 12.16C94.8809 12.16 95.4082 12.2813 95.8562 12.524C96.3135 12.7573 96.6775 13.0513 96.9482 13.406V12.286H98.5582V20H96.9482V18.852C96.6775 19.216 96.3089 19.5193 95.8422 19.762C95.3755 20.0047 94.8435 20.126 94.2462 20.126C93.5835 20.126 92.9769 19.958 92.4262 19.622C91.8755 19.2767 91.4369 18.8007 91.1102 18.194C90.7929 17.578 90.6342 16.8827 90.6342 16.108ZM96.9482 16.136C96.9482 15.604 96.8362 15.142 96.6122 14.75C96.3975 14.358 96.1129 14.0593 95.7582 13.854C95.4035 13.6487 95.0209 13.546 94.6102 13.546C94.1995 13.546 93.8169 13.6487 93.4622 13.854C93.1075 14.05 92.8182 14.344 92.5942 14.736C92.3795 15.1187 92.2722 15.576 92.2722 16.108C92.2722 16.64 92.3795 17.1067 92.5942 17.508C92.8182 17.9093 93.1075 18.2173 93.4622 18.432C93.8262 18.6373 94.2089 18.74 94.6102 18.74C95.0209 18.74 95.4035 18.6373 95.7582 18.432C96.1129 18.2267 96.3975 17.928 96.6122 17.536C96.8362 17.1347 96.9482 16.668 96.9482 16.136ZM102.25 13.406C102.484 13.014 102.792 12.7107 103.174 12.496C103.566 12.272 104.028 12.16 104.56 12.16V13.812H104.154C103.529 13.812 103.053 13.9707 102.726 14.288C102.409 14.6053 102.25 15.156 102.25 15.94V20H100.654V12.286H102.25V13.406Z" fill="white"/>
<g clip-path="url(#clip0_520_515)">
<path d="M25.0145 13.5941H25.0156H18.4062V6.99718C18.4062 6.45426 17.9666 6.00031 17.4237 6.00031H16.578C16.0352 6.00031 15.5937 6.45426 15.5937 6.99718V13.5941H8.98444C8.4418 13.5941 8 14.0331 8 14.5762V15.4267C8 15.9694 8.44166 16.4065 8.98444 16.4065H15.5938V23.0273C15.5938 23.5699 16.0352 24.0002 16.5781 24.0002H17.4238C17.9667 24.0002 18.4063 23.5698 18.4063 23.0273V16.4065H25.0145C25.5575 16.4065 26 15.9692 26 15.4267V14.5762C26 14.0331 25.5575 13.5941 25.0145 13.5941Z" fill="white"/>
</g>
<defs>
<clipPath id="clip0_520_515">
<rect width="18" height="18" fill="white" transform="translate(8 6)"/>
</clipPath>
</defs>
</svg>
