<svg width="157" height="30" viewBox="0 0 157 30" fill="none" xmlns="http://www.w3.org/2000/svg">
<rect width="157" height="30" rx="4" fill="#4B4EFF"/>
<path d="M47.644 15.114C47.644 14.162 47.8633 13.308 48.302 12.552C48.75 11.796 49.352 11.208 50.108 10.788C50.8733 10.3587 51.7086 10.144 52.614 10.144C53.65 10.144 54.5693 10.4007 55.372 10.914C56.184 11.418 56.772 12.1367 57.136 13.07H55.218C54.966 12.5567 54.616 12.174 54.168 11.922C53.72 11.67 53.202 11.544 52.614 11.544C51.97 11.544 51.396 11.6887 50.892 11.978C50.388 12.2673 49.9913 12.6827 49.702 13.224C49.422 13.7653 49.282 14.3953 49.282 15.114C49.282 15.8327 49.422 16.4627 49.702 17.004C49.9913 17.5453 50.388 17.9653 50.892 18.264C51.396 18.5533 51.97 18.698 52.614 18.698C53.202 18.698 53.72 18.572 54.168 18.32C54.616 18.068 54.966 17.6853 55.218 17.172H57.136C56.772 18.1053 56.184 18.824 55.372 19.328C54.5693 19.832 53.65 20.084 52.614 20.084C51.6993 20.084 50.864 19.874 50.108 19.454C49.352 19.0247 48.75 18.432 48.302 17.676C47.8633 16.92 47.644 16.066 47.644 15.114ZM60.6001 13.406C60.8334 13.014 61.1414 12.7107 61.5241 12.496C61.9161 12.272 62.3781 12.16 62.9101 12.16V13.812H62.5041C61.8788 13.812 61.4028 13.9707 61.0761 14.288C60.7588 14.6053 60.6001 15.156 60.6001 15.94V20H59.0041V12.286H60.6001V13.406ZM65.1891 11.264C64.8998 11.264 64.6571 11.166 64.4611 10.97C64.2651 10.774 64.1671 10.5313 64.1671 10.242C64.1671 9.95267 64.2651 9.71 64.4611 9.514C64.6571 9.318 64.8998 9.22 65.1891 9.22C65.4691 9.22 65.7071 9.318 65.9031 9.514C66.0991 9.71 66.1971 9.95267 66.1971 10.242C66.1971 10.5313 66.0991 10.774 65.9031 10.97C65.7071 11.166 65.4691 11.264 65.1891 11.264ZM65.9731 12.286V20H64.3771V12.286H65.9731ZM67.5366 16.108C67.5366 15.3333 67.6952 14.6473 68.0126 14.05C68.3392 13.4527 68.7779 12.9907 69.3286 12.664C69.8886 12.328 70.5046 12.16 71.1766 12.16C71.7832 12.16 72.3106 12.2813 72.7586 12.524C73.2159 12.7573 73.5799 13.0513 73.8506 13.406V12.286H75.4606V20H73.8506V18.852C73.5799 19.216 73.2112 19.5193 72.7446 19.762C72.2779 20.0047 71.7459 20.126 71.1486 20.126C70.4859 20.126 69.8792 19.958 69.3286 19.622C68.7779 19.2767 68.3392 18.8007 68.0126 18.194C67.6952 17.578 67.5366 16.8827 67.5366 16.108ZM73.8506 16.136C73.8506 15.604 73.7386 15.142 73.5146 14.75C73.2999 14.358 73.0152 14.0593 72.6606 13.854C72.3059 13.6487 71.9232 13.546 71.5126 13.546C71.1019 13.546 70.7192 13.6487 70.3646 13.854C70.0099 14.05 69.7206 14.344 69.4966 14.736C69.2819 15.1187 69.1746 15.576 69.1746 16.108C69.1746 16.64 69.2819 17.1067 69.4966 17.508C69.7206 17.9093 70.0099 18.2173 70.3646 18.432C70.7286 18.6373 71.1112 18.74 71.5126 18.74C71.9232 18.74 72.3059 18.6373 72.6606 18.432C73.0152 18.2267 73.2999 17.928 73.5146 17.536C73.7386 17.1347 73.8506 16.668 73.8506 16.136ZM79.1528 13.406C79.3862 13.014 79.6942 12.7107 80.0768 12.496C80.4688 12.272 80.9308 12.16 81.4628 12.16V13.812H81.0568C80.4315 13.812 79.9555 13.9707 79.6288 14.288C79.3115 14.6053 79.1528 15.156 79.1528 15.94V20H77.5568V12.286H79.1528V13.406ZM88.1626 11.558V14.414H91.5226V15.716H88.1626V18.698H91.9426V20H86.5666V10.256H91.9426V11.558H88.1626ZM103.246 12.16C103.853 12.16 104.394 12.286 104.87 12.538C105.356 12.79 105.734 13.1633 106.004 13.658C106.284 14.1527 106.424 14.75 106.424 15.45V20H104.842V15.688C104.842 14.9973 104.67 14.47 104.324 14.106C103.979 13.7327 103.508 13.546 102.91 13.546C102.313 13.546 101.837 13.7327 101.482 14.106C101.137 14.47 100.964 14.9973 100.964 15.688V20H99.3824V15.688C99.3824 14.9973 99.2097 14.47 98.8644 14.106C98.5191 13.7327 98.0477 13.546 97.4504 13.546C96.8531 13.546 96.3771 13.7327 96.0224 14.106C95.6771 14.47 95.5044 14.9973 95.5044 15.688V20H93.9084V12.286H95.5044V13.168C95.7657 12.8507 96.0971 12.6033 96.4984 12.426C96.8997 12.2487 97.3291 12.16 97.7864 12.16C98.4024 12.16 98.9531 12.2907 99.4384 12.552C99.9237 12.8133 100.297 13.1913 100.558 13.686C100.792 13.2193 101.156 12.8507 101.65 12.58C102.145 12.3 102.677 12.16 103.246 12.16ZM110.051 13.42C110.322 13.0653 110.691 12.7667 111.157 12.524C111.624 12.2813 112.151 12.16 112.739 12.16C113.411 12.16 114.023 12.328 114.573 12.664C115.133 12.9907 115.572 13.4527 115.889 14.05C116.207 14.6473 116.365 15.3333 116.365 16.108C116.365 16.8827 116.207 17.578 115.889 18.194C115.572 18.8007 115.133 19.2767 114.573 19.622C114.023 19.958 113.411 20.126 112.739 20.126C112.151 20.126 111.629 20.0093 111.171 19.776C110.714 19.5333 110.341 19.2347 110.051 18.88V23.668H108.455V12.286H110.051V13.42ZM114.741 16.108C114.741 15.576 114.629 15.1187 114.405 14.736C114.191 14.344 113.901 14.05 113.537 13.854C113.183 13.6487 112.8 13.546 112.389 13.546C111.988 13.546 111.605 13.6487 111.241 13.854C110.887 14.0593 110.597 14.358 110.373 14.75C110.159 15.142 110.051 15.604 110.051 16.136C110.051 16.668 110.159 17.1347 110.373 17.536C110.597 17.928 110.887 18.2267 111.241 18.432C111.605 18.6373 111.988 18.74 112.389 18.74C112.8 18.74 113.183 18.6373 113.537 18.432C113.901 18.2173 114.191 17.9093 114.405 17.508C114.629 17.1067 114.741 16.64 114.741 16.108ZM119.54 13.406C119.773 13.014 120.081 12.7107 120.464 12.496C120.856 12.272 121.318 12.16 121.85 12.16V13.812H121.444C120.818 13.812 120.342 13.9707 120.016 14.288C119.698 14.6053 119.54 15.156 119.54 15.94V20H117.944V12.286H119.54V13.406ZM130.387 15.954C130.387 16.2433 130.368 16.5047 130.331 16.738H124.437C124.483 17.354 124.712 17.8487 125.123 18.222C125.533 18.5953 126.037 18.782 126.635 18.782C127.493 18.782 128.1 18.4227 128.455 17.704H130.177C129.943 18.4133 129.519 18.9967 128.903 19.454C128.296 19.902 127.54 20.126 126.635 20.126C125.897 20.126 125.235 19.9627 124.647 19.636C124.068 19.3 123.611 18.8333 123.275 18.236C122.948 17.6293 122.785 16.9293 122.785 16.136C122.785 15.3427 122.943 14.6473 123.261 14.05C123.587 13.4433 124.04 12.9767 124.619 12.65C125.207 12.3233 125.879 12.16 126.635 12.16C127.363 12.16 128.011 12.3187 128.581 12.636C129.15 12.9533 129.593 13.4013 129.911 13.98C130.228 14.5493 130.387 15.2073 130.387 15.954ZM128.721 15.45C128.711 14.862 128.501 14.3907 128.091 14.036C127.68 13.6813 127.171 13.504 126.565 13.504C126.014 13.504 125.543 13.6813 125.151 14.036C124.759 14.3813 124.525 14.8527 124.451 15.45H128.721ZM134.757 20.126C134.151 20.126 133.605 20.0187 133.119 19.804C132.643 19.58 132.265 19.2813 131.985 18.908C131.705 18.5253 131.556 18.1007 131.537 17.634H133.189C133.217 17.9607 133.371 18.236 133.651 18.46C133.941 18.6747 134.3 18.782 134.729 18.782C135.177 18.782 135.523 18.698 135.765 18.53C136.017 18.3527 136.143 18.1287 136.143 17.858C136.143 17.5687 136.003 17.354 135.723 17.214C135.453 17.074 135.019 16.92 134.421 16.752C133.843 16.5933 133.371 16.4393 133.007 16.29C132.643 16.1407 132.326 15.912 132.055 15.604C131.794 15.296 131.663 14.89 131.663 14.386C131.663 13.9753 131.785 13.602 132.027 13.266C132.27 12.9207 132.615 12.65 133.063 12.454C133.521 12.258 134.043 12.16 134.631 12.16C135.509 12.16 136.213 12.384 136.745 12.832C137.287 13.2707 137.576 13.8727 137.613 14.638H136.017C135.989 14.2927 135.849 14.0173 135.597 13.812C135.345 13.6067 135.005 13.504 134.575 13.504C134.155 13.504 133.833 13.5833 133.609 13.742C133.385 13.9007 133.273 14.1107 133.273 14.372C133.273 14.5773 133.348 14.75 133.497 14.89C133.647 15.03 133.829 15.142 134.043 15.226C134.258 15.3007 134.575 15.3987 134.995 15.52C135.555 15.6693 136.013 15.8233 136.367 15.982C136.731 16.1313 137.044 16.3553 137.305 16.654C137.567 16.9527 137.702 17.3493 137.711 17.844C137.711 18.2827 137.59 18.6747 137.347 19.02C137.105 19.3653 136.759 19.636 136.311 19.832C135.873 20.028 135.355 20.126 134.757 20.126ZM138.904 16.108C138.904 15.3333 139.062 14.6473 139.38 14.05C139.706 13.4527 140.145 12.9907 140.696 12.664C141.256 12.328 141.872 12.16 142.544 12.16C143.15 12.16 143.678 12.2813 144.126 12.524C144.583 12.7573 144.947 13.0513 145.218 13.406V12.286H146.828V20H145.218V18.852C144.947 19.216 144.578 19.5193 144.112 19.762C143.645 20.0047 143.113 20.126 142.516 20.126C141.853 20.126 141.246 19.958 140.696 19.622C140.145 19.2767 139.706 18.8007 139.38 18.194C139.062 17.578 138.904 16.8827 138.904 16.108ZM145.218 16.136C145.218 15.604 145.106 15.142 144.882 14.75C144.667 14.358 144.382 14.0593 144.028 13.854C143.673 13.6487 143.29 13.546 142.88 13.546C142.469 13.546 142.086 13.6487 141.732 13.854C141.377 14.05 141.088 14.344 140.864 14.736C140.649 15.1187 140.542 15.576 140.542 16.108C140.542 16.64 140.649 17.1067 140.864 17.508C141.088 17.9093 141.377 18.2173 141.732 18.432C142.096 18.6373 142.478 18.74 142.88 18.74C143.29 18.74 143.673 18.6373 144.028 18.432C144.382 18.2267 144.667 17.928 144.882 17.536C145.106 17.1347 145.218 16.668 145.218 16.136Z" fill="white"/>
<g clip-path="url(#clip0_552_516)">
<path d="M25.0145 13.5941H25.0156H18.4062V6.99718C18.4062 6.45426 17.9666 6.00031 17.4237 6.00031H16.578C16.0352 6.00031 15.5937 6.45426 15.5937 6.99718V13.5941H8.98444C8.4418 13.5941 8 14.0331 8 14.5762V15.4267C8 15.9694 8.44166 16.4065 8.98444 16.4065H15.5938V23.0273C15.5938 23.5699 16.0352 24.0002 16.5781 24.0002H17.4238C17.9667 24.0002 18.4063 23.5698 18.4063 23.0273V16.4065H25.0145C25.5575 16.4065 26 15.9692 26 15.4267V14.5762C26 14.0331 25.5575 13.5941 25.0145 13.5941Z" fill="white"/>
</g>
<defs>
<clipPath id="clip0_552_516">
<rect width="18" height="18" fill="white" transform="translate(8 6)"/>
</clipPath>
</defs>
</svg>
