<svg width="31" height="31" viewBox="0 0 31 31" fill="none" xmlns="http://www.w3.org/2000/svg">
<path d="M30.36 30.72H0.36C0.161 30.72 0 30.559 0 30.36V0.36C0 0.161 0.161 0 0.36 0H30.36C30.559 0 30.72 0.161 30.72 0.36V30.36C30.72 30.559 30.559 30.72 30.36 30.72ZM0.72 30H30V11.72H0.72V30ZM12.72 11H30V0.72H12.72V11ZM0.72 11H12V0.72H0.72V11ZM8.36 26.72C5.404 26.72 3 24.315 3 21.36H3.72C3.72 23.919 5.802 26 8.36 26C10.918 26 13 23.919 13 21.36C13 18.801 10.919 16.72 8.36 16.72V16C11.316 16 13.72 18.405 13.72 21.36C13.72 24.315 11.316 26.72 8.36 26.72ZM26.72 26.36H26V15.36H26.721L26.72 26.36ZM22.72 26.36H22V18.36H22.721L22.72 26.36ZM18.72 26.36H18V23.36H18.721L18.72 26.36Z" fill="white"/>
</svg>
