<svg width="10" height="10" viewBox="0 0 10 10" fill="none" xmlns="http://www.w3.org/2000/svg">
<path d="M9.662 1.96973L6.63205 4.99998L9.662 8.03009C10.1127 8.48095 10.1127 9.21129 9.662 9.66215C9.43681 9.88733 9.14158 10 8.84648 10C8.55091 10 8.25564 9.8875 8.03063 9.66215L5.00002 6.63169L1.96965 9.66212C1.74449 9.8873 1.44922 9.99998 1.15387 9.99998C0.858611 9.99998 0.563548 9.88748 0.338189 9.66212C-0.1125 9.21146 -0.1125 8.4811 0.338189 8.03006L3.36805 4.99995L0.338017 1.96973C-0.112672 1.51904 -0.112672 0.788537 0.338017 0.337849C0.78862 -0.112494 1.5187 -0.112494 1.96947 0.337849L4.99999 3.3681L8.03028 0.337849C8.48114 -0.112494 9.21131 -0.112494 9.66183 0.337849C10.1127 0.788537 10.1127 1.51904 9.662 1.96973Z" fill="#FF3333"/>
</svg>
