<svg width="26" height="26" viewBox="0 0 26 26" fill="none" xmlns="http://www.w3.org/2000/svg">
<rect width="26" height="26" rx="5" fill="#4B4EFF"/>
<g clip-path="url(#clip0_945_523)">
<path d="M12.4214 17.9419C12.4406 17.961 12.4607 17.9791 12.4816 17.9963C12.4908 18.0038 12.5005 18.0104 12.51 18.0175C12.5219 18.0264 12.5335 18.0356 12.5459 18.0439C12.5575 18.0516 12.5695 18.0583 12.5813 18.0654C12.5923 18.072 12.6031 18.079 12.6145 18.085C12.6266 18.0916 12.6392 18.0971 12.6516 18.1029C12.6633 18.1085 12.6749 18.1144 12.687 18.1193C12.6991 18.1243 12.7115 18.1284 12.7238 18.1328C12.7367 18.1374 12.7494 18.1423 12.7625 18.1463C12.7748 18.15 12.7874 18.1528 12.7998 18.1559C12.8132 18.1593 12.8265 18.1631 12.8401 18.1658C12.8545 18.1686 12.869 18.1703 12.8834 18.1724C12.8954 18.1741 12.9072 18.1764 12.9193 18.1776C12.9462 18.1802 12.9731 18.1817 13.0001 18.1817C13.027 18.1817 13.0539 18.1802 13.0807 18.1776C13.0931 18.1764 13.1049 18.1741 13.1171 18.1723C13.1314 18.1703 13.1457 18.1686 13.1599 18.1658C13.1738 18.1631 13.1874 18.1592 13.201 18.1558C13.2132 18.1526 13.2254 18.15 13.2375 18.1464C13.2509 18.1423 13.2638 18.1373 13.277 18.1326C13.289 18.1282 13.3012 18.1243 13.3131 18.1194C13.3254 18.1143 13.3371 18.1084 13.349 18.1027C13.3613 18.0969 13.3737 18.0914 13.3857 18.085C13.3971 18.0789 13.4079 18.072 13.419 18.0653C13.4309 18.0582 13.4429 18.0516 13.4544 18.0438C13.4665 18.0358 13.4779 18.0267 13.4895 18.018C13.4993 18.0107 13.5092 18.004 13.5187 17.9962C13.5386 17.9798 13.5577 17.9626 13.5759 17.9444C13.5768 17.9436 13.5778 17.9429 13.5786 17.942L17.3969 14.124C17.7164 13.8044 17.7164 13.2864 17.3969 12.9669C17.0774 12.6474 16.5594 12.6474 16.2398 12.9668L13.8182 15.3883V5.36359C13.8182 4.91174 13.4519 4.54541 13.0001 4.54541C12.5482 4.54541 12.1819 4.91174 12.1819 5.36359V15.3882L9.76049 12.9669C9.44102 12.6474 8.92294 12.6474 8.60341 12.9669C8.28389 13.2864 8.28389 13.8044 8.60341 14.124L12.4214 17.9419Z" fill="white"/>
<path d="M21.1818 12.7272C20.73 12.7272 20.3636 13.0935 20.3636 13.5454V19.8181H5.63636V13.5454C5.63636 13.0935 5.27004 12.7272 4.81818 12.7272C4.36633 12.7272 4 13.0935 4 13.5454V20.6363C4 21.0881 4.36633 21.4544 4.81818 21.4544H21.1818C21.6337 21.4544 22 21.0881 22 20.6363V13.5454C22 13.0935 21.6337 12.7272 21.1818 12.7272Z" fill="white"/>
</g>
<defs>
<clipPath id="clip0_945_523">
<rect width="18" height="18" fill="white" transform="translate(4 4)"/>
</clipPath>
</defs>
</svg>
