<svg width="12" height="12" viewBox="0 0 12 12" fill="none" xmlns="http://www.w3.org/2000/svg">
<path d="M10.8229 9.95292C10.8229 11.0817 9.90456 12 8.77578 12H3.22433C2.09554 12 1.17725 11.0817 1.17725 9.95292C1.17725 9.48739 1.55463 9.11 2.02016 9.11C2.48569 9.11 2.86308 9.48739 2.86308 9.95292C2.86308 10.1521 3.02516 10.3142 3.22433 10.3142H8.77578C8.97495 10.3142 9.13703 10.1521 9.13703 9.95292C9.13703 9.48739 9.51441 9.11 9.97994 9.11C10.4455 9.11 10.8229 9.48739 10.8229 9.95292ZM5.40411 8.26106C5.56234 8.41905 5.77668 8.50792 6.00017 8.50792C6.22367 8.50792 6.43801 8.41905 6.59624 8.26106L9.08477 5.77229C9.41398 5.44307 9.41398 4.90939 9.08477 4.58017C8.75555 4.25119 8.22162 4.25095 7.89288 4.58017L6.84333 5.62972V0.842916C6.84333 0.377386 6.46594 0 6.00041 0C5.53488 0 5.1575 0.377386 5.1575 0.842916V5.62996L4.10771 4.58017C3.77849 4.25119 3.2448 4.25119 2.91558 4.58017C2.58636 4.90939 2.58636 5.44307 2.91558 5.77229L5.40411 8.26106Z" fill="#010002"/>
</svg>
