<svg width="26" height="26" viewBox="0 0 26 26" fill="none" xmlns="http://www.w3.org/2000/svg">
<rect width="26" height="26" rx="5" fill="#4B4EFF"/>
<path d="M20.3989 7.6577L18.3234 5.58226C17.8959 5.04708 16.5873 4.59675 15.6018 5.58226L6.10896 15.0425C5.96537 15.1861 5.89685 15.3721 5.90664 15.5516L5.02229 20.1789C4.88523 20.7075 5.41062 21.0469 5.76958 20.9947L10.5666 20.0418C10.7037 20.0418 10.8048 19.9733 10.906 19.8721L20.3989 10.4152C21.1494 9.66462 21.1494 8.40826 20.3989 7.6577ZM16.5547 6.5025C16.7603 6.26428 17.1682 6.26428 17.4064 6.5025L17.971 7.05726L8.51726 16.511L7.53501 15.5189L16.5547 6.5025ZM6.99657 16.8797L9.09812 18.9813L6.48424 19.4969L6.99657 16.8797ZM19.4819 9.4264L10.4491 18.4591L9.46687 17.4671L18.9304 8.00361L19.4786 8.54205C19.7788 8.86185 19.6385 9.2665 19.4819 9.4264Z" fill="white"/>
</svg>
