<svg width="25" height="25" viewBox="0 0 25 25" fill="none" xmlns="http://www.w3.org/2000/svg">
<path d="M21.9463 4.01392H3.0537C1.36996 4.01392 0 5.38388 0 7.06761V17.9324C0 19.6161 1.36996 20.9861 3.0537 20.9861H21.9463C23.63 20.9861 25 19.6161 25 17.9324V7.06794C25.0003 5.38388 23.6304 4.01392 21.9463 4.01392ZM20.4542 6.00611L12.5 11.1307L4.54585 6.00611H20.4542ZM21.9463 18.9942H3.0537C2.46832 18.9942 1.99219 18.5177 1.99219 17.9327V7.12439L11.8854 13.4861C11.8987 13.4944 11.913 13.5001 11.9266 13.5077C11.9409 13.5157 11.9555 13.5233 11.9701 13.5306C12.0468 13.5701 12.1258 13.602 12.2065 13.6229C12.2148 13.6252 12.2231 13.6262 12.2314 13.6282C12.32 13.6491 12.4097 13.6621 12.4993 13.6621C12.4997 13.6621 12.5 13.6621 12.5 13.6621C12.5007 13.6621 12.501 13.6621 12.5013 13.6621C12.591 13.6621 12.6806 13.6495 12.7693 13.6282C12.7776 13.6262 12.7859 13.6252 12.7942 13.6229C12.8749 13.602 12.9536 13.5701 13.0306 13.5306C13.0452 13.5233 13.0598 13.5157 13.0741 13.5077C13.0877 13.5001 13.102 13.4944 13.1153 13.4861L23.0085 7.12439V17.9324C23.0081 18.5177 22.5317 18.9942 21.9463 18.9942Z" fill="#FFA51E"/>
</svg>
