<svg width="25" height="17" viewBox="0 0 25 17" fill="none" xmlns="http://www.w3.org/2000/svg">
<path d="M21.9463 0.013916H3.0537C1.36996 0.013916 0 1.38388 0 3.06761V13.9324C0 15.6161 1.36996 16.9861 3.0537 16.9861H21.9463C23.63 16.9861 25 15.6161 25 13.9324V3.06794C25.0003 1.38388 23.6304 0.013916 21.9463 0.013916ZM20.4542 2.00611L12.5 7.13068L4.54585 2.00611H20.4542ZM21.9463 14.9942H3.0537C2.46832 14.9942 1.99219 14.5177 1.99219 13.9327V3.12439L11.8854 9.48612C11.8987 9.49442 11.913 9.50006 11.9266 9.5077C11.9409 9.51567 11.9555 9.52331 11.9701 9.53061C12.0468 9.57012 12.1258 9.602 12.2065 9.62292C12.2148 9.62524 12.2231 9.62624 12.2314 9.62823C12.32 9.64915 12.4097 9.6621 12.4993 9.6621C12.4997 9.6621 12.5 9.6621 12.5 9.6621C12.5007 9.6621 12.501 9.6621 12.5013 9.6621C12.591 9.6621 12.6806 9.64948 12.7693 9.62823C12.7776 9.62624 12.7859 9.62524 12.7942 9.62292C12.8749 9.602 12.9536 9.57012 13.0306 9.53061C13.0452 9.52331 13.0598 9.51567 13.0741 9.5077C13.0877 9.50006 13.102 9.49442 13.1153 9.48612L23.0085 3.12439V13.9324C23.0081 14.5177 22.5317 14.9942 21.9463 14.9942Z" fill="black" fill-opacity="0.15"/>
</svg>
