<svg width="30" height="30" viewBox="0 0 30 30" fill="none" xmlns="http://www.w3.org/2000/svg">
<g clip-path="url(#clip0_316_818)">
<path d="M18.2813 29.4H11.7188C11.5323 29.4 11.3813 29.2491 11.3813 29.0625V22.5C11.3813 22.3134 11.5323 22.1625 11.7188 22.1625H14.6626V18.6037C13.9182 18.5344 13.2376 18.2381 12.692 17.7853L7.00416 23.4731C7.52447 24.1003 7.8376 24.9047 7.8376 25.7812C7.8376 27.7762 6.21479 29.4 4.21885 29.4C2.22291 29.4 0.600098 27.7762 0.600098 25.7812C0.600098 23.7862 2.22291 22.1625 4.21885 22.1625C5.09541 22.1625 5.89979 22.4766 6.52697 22.9969L12.2148 17.3091C11.762 16.7634 11.4657 16.0828 11.3963 15.3384H7.96885C5.7151 15.3384 3.88135 13.5047 3.88135 11.2509V7.8375H0.937598C0.751035 7.8375 0.600098 7.68656 0.600098 7.5V0.937498C0.600098 0.750936 0.751035 0.599998 0.937598 0.599998H7.5001C7.68666 0.599998 7.8376 0.750936 7.8376 0.937498V3.88125H12.7876V0.937498C12.7876 0.817498 12.8513 0.704999 12.9563 0.644999C13.0604 0.585936 13.1898 0.585936 13.2938 0.644999L18.9188 3.8925C19.0229 3.9525 19.0876 4.06312 19.0885 4.18406C19.0885 4.30406 19.0257 4.41562 18.9217 4.47656L13.2967 7.79156C13.1935 7.85344 13.0632 7.85437 12.9582 7.79344C12.8523 7.73344 12.7876 7.62094 12.7876 7.5V4.55625H7.8376V7.5C7.8376 7.68656 7.68666 7.8375 7.5001 7.8375H4.55635V11.25C4.55635 13.1316 6.08729 14.6625 7.96885 14.6625H11.3973C11.5679 12.825 13.1185 11.3812 15.0001 11.3812C16.8817 11.3812 18.4323 12.825 18.6038 14.6625H22.1626V11.7187C22.1626 11.5322 22.3135 11.3812 22.5001 11.3812H25.4438V7.82156C23.6063 7.65094 22.1626 6.10031 22.1626 4.21875C22.1626 2.22375 23.7863 0.599998 25.7813 0.599998C27.7763 0.599998 29.4001 2.22281 29.4001 4.21875C29.4001 6.10031 27.9563 7.65094 26.1188 7.82156V11.3812H29.0626C29.2492 11.3812 29.4001 11.5322 29.4001 11.7187V18.2812C29.4001 18.4678 29.2492 18.6187 29.0626 18.6187H26.1188V22.9688C26.1188 25.2225 24.2851 27.0562 22.0313 27.0562H18.6188V29.0625C18.6188 29.2491 18.4679 29.4 18.2813 29.4ZM12.0563 28.725H17.9438V22.8375H12.0563V28.725ZM4.21885 22.8375C2.59604 22.8375 1.2751 24.1575 1.2751 25.7812C1.2751 27.405 2.59604 28.725 4.21885 28.725C5.84166 28.725 7.1626 27.405 7.1626 25.7812C7.1626 24.1575 5.84166 22.8375 4.21885 22.8375ZM18.6188 26.3812H22.0313C23.9129 26.3812 25.4438 24.8503 25.4438 22.9688V18.6187H22.5001C22.3135 18.6187 22.1626 18.4678 22.1626 18.2812V15.3375H18.6038C18.4426 17.0644 17.0645 18.4425 15.3376 18.6037V22.1625H18.2813C18.4679 22.1625 18.6188 22.3134 18.6188 22.5V26.3812ZM22.8376 17.9437H28.7242V12.0562H22.8376V17.9437ZM15.0001 12.0562C13.3773 12.0562 12.0563 13.3772 12.0563 15C12.0563 16.6228 13.3773 17.9437 15.0001 17.9437C16.6229 17.9437 17.9438 16.6237 17.9438 15C17.9438 13.3762 16.6229 12.0562 15.0001 12.0562ZM25.7813 1.275C24.1585 1.275 22.8376 2.59594 22.8376 4.21875C22.8376 5.84156 24.1576 7.1625 25.7813 7.1625C27.4051 7.1625 28.7251 5.84156 28.7251 4.21875C28.7251 2.59594 27.4042 1.275 25.7813 1.275ZM1.2751 7.1625H7.1626V1.275H1.2751V7.1625ZM13.4626 1.5225V6.90937L18.0798 4.18781L13.4626 1.5225Z" fill="white"/>
</g>
<defs>
<clipPath id="clip0_316_818">
<rect width="30" height="30" fill="white"/>
</clipPath>
</defs>
</svg>
