<svg width="25" height="24" viewBox="0 0 25 24" fill="none" xmlns="http://www.w3.org/2000/svg">
<path d="M12.1299 8V13H17.1299V11H14.1299V8H12.1299Z" fill="#4B4EFF"/>
<path d="M21.4219 8.497C20.9708 7.42705 20.316 6.45501 19.4939 5.635C18.2494 4.39057 16.6676 3.5381 14.9439 3.183C13.7475 2.93949 12.5143 2.93949 11.3179 3.183C9.59256 3.53584 8.00936 4.389 6.76588 5.636C5.94577 6.45689 5.29121 7.42786 4.83788 8.496C4.36899 9.60461 4.1282 10.7963 4.12988 12L4.13088 12.025H2.12988L5.12988 16L8.12988 12.025H6.13088L6.12988 12C6.127 10.6054 6.54335 9.24207 7.32488 8.087C7.829 7.34169 8.47083 6.69952 9.21588 6.195C9.97382 5.68441 10.824 5.3264 11.7189 5.141C13.5374 4.7671 15.43 5.13063 16.9806 6.15167C18.5312 7.17271 19.6129 8.7677 19.9879 10.586C20.1765 11.5179 20.1765 12.4781 19.9879 13.41C19.8049 14.3056 19.4467 15.1563 18.9339 15.913C18.6839 16.284 18.3969 16.633 18.0799 16.949C17.4411 17.587 16.6857 18.0966 15.8549 18.45C15.4317 18.6289 14.9919 18.7655 14.5419 18.858C13.6103 19.0465 12.6504 19.0465 11.7189 18.858C10.8242 18.6746 9.97435 18.3168 9.21788 17.805C8.84584 17.5536 8.4986 17.2673 8.18088 16.95L6.76688 18.364C7.60201 19.2003 8.59391 19.8636 9.68578 20.3159C10.7776 20.7682 11.948 21.0007 13.1299 21C14.3329 20.9995 15.5238 20.7592 16.6329 20.293C18.2405 19.6128 19.6159 18.4803 20.5919 17.033C21.5963 15.5469 22.1321 13.7937 22.1299 12C22.1324 10.7966 21.8916 9.60502 21.4219 8.497V8.497Z" fill="#4B4EFF"/>
</svg>
