<svg width="28" height="28" viewBox="0 0 28 28" fill="none" xmlns="http://www.w3.org/2000/svg">
<path d="M0.933333 6.53333V5.6C0.417868 5.6 0 6.01787 0 6.53333H0.933333ZM12.1333 6.53333H13.0667C13.0667 6.01787 12.6488 5.6 12.1333 5.6V6.53333ZM12.1333 27.0667V28C12.6488 28 13.0667 27.5821 13.0667 27.0667H12.1333ZM0.933333 27.0667H0C0 27.5821 0.417868 28 0.933333 28V27.0667ZM15.8667 6.53333V5.6C15.3512 5.6 14.9333 6.01787 14.9333 6.53333H15.8667ZM27.0667 6.53333H28C28 6.01787 27.5821 5.6 27.0667 5.6V6.53333ZM27.0667 17.7333V18.6667C27.5821 18.6667 28 18.2488 28 17.7333H27.0667ZM15.8667 17.7333H14.9333C14.9333 18.2488 15.3512 18.6667 15.8667 18.6667V17.7333ZM0 1.86667H13.0667V0H0V1.86667ZM14.9333 1.86667H28V0H14.9333V1.86667ZM0.933333 7.46667H12.1333V5.6H0.933333V7.46667ZM11.2 6.53333V27.0667H13.0667V6.53333H11.2ZM12.1333 26.1333H0.933333V28H12.1333V26.1333ZM1.86667 27.0667V6.53333H0V27.0667H1.86667ZM15.8667 7.46667H27.0667V5.6H15.8667V7.46667ZM26.1333 6.53333V17.7333H28V6.53333H26.1333ZM27.0667 16.8H15.8667V18.6667H27.0667V16.8ZM16.8 17.7333V6.53333H14.9333V17.7333H16.8Z" fill="white"/>
</svg>
