<svg width="12" height="12" viewBox="0 0 12 12" fill="none" xmlns="http://www.w3.org/2000/svg">
<g clip-path="url(#clip0_33_311)">
<path d="M11.9409 5.03946L11.2062 3.97872C11.1023 3.82753 10.8944 3.78973 10.7432 3.89367L10.4975 4.06377C10.2045 3.12825 9.73206 2.44314 8.95955 1.84072L9.20524 1.67062C9.35643 1.56667 9.39423 1.35878 9.29029 1.20758L8.55793 0.144487C8.45398 -0.00670898 8.24609 -0.044508 8.09489 0.0594393L4.82292 2.32029C4.67172 2.42424 4.63392 2.63213 4.73787 2.78333L5.47259 3.84406C5.57653 3.99526 5.78443 4.03306 5.93563 3.92911L6.18132 3.75902C6.22148 3.88423 6.264 4.00707 6.31125 4.12283L0.421698 8.19567C-0.0224405 8.50279 -0.133475 9.1123 0.173642 9.55644C0.480759 10.0006 1.09027 10.1116 1.53441 9.80449L7.42396 5.73401C7.5161 5.82142 7.61296 5.90411 7.7169 5.98443L7.47121 6.15453C7.32001 6.25847 7.28221 6.46637 7.38616 6.61756L8.12088 7.6783C8.22483 7.82949 8.43272 7.86729 8.58392 7.76335L11.8559 5.50249C12.0071 5.39855 12.0449 5.19065 11.9409 5.03946ZM5.82932 3.19439L5.47495 2.68174L8.19884 0.798882L8.55321 1.31153L5.82932 3.19439ZM1.15405 9.25877C1.01231 9.35563 0.818587 9.32019 0.719365 9.18081C0.622505 9.03906 0.657941 8.84534 0.797325 8.74612L6.59947 4.7347C6.70578 4.91425 6.82154 5.08434 6.95384 5.24735L1.15405 9.25877ZM6.75775 3.36449L8.38311 2.23997C9.20524 2.83294 9.6541 3.48261 9.92106 4.46302L8.2957 5.58754C7.47357 4.99221 7.02471 4.34254 6.75775 3.36449ZM8.47997 7.02627L8.12561 6.51362L10.8495 4.63076L11.2039 5.1434L8.47997 7.02627Z" fill="black"/>
<path d="M11.6669 10.0006H11.0999V9.30366C11.0999 9.11939 10.9511 8.97055 10.7668 8.97055H7.57987C7.3956 8.97055 7.24677 9.11939 7.24677 9.30366V10.0006H6.67978C6.49551 10.0006 6.34668 10.1494 6.34668 10.3337V11.6661C6.34668 11.8504 6.49551 11.9992 6.67978 11.9992H11.6669C11.8512 11.9992 12 11.8504 12 11.6661V10.3337C12 10.1518 11.8512 10.0006 11.6669 10.0006ZM11.3338 11.3354H7.01289V10.6691H7.57987C7.76414 10.6691 7.91298 10.5203 7.91298 10.336V9.63912H10.4337V10.336C10.4337 10.5203 10.5825 10.6691 10.7668 10.6691H11.3338V11.3354Z" fill="black"/>
</g>
<defs>
<clipPath id="clip0_33_311">
<rect width="12" height="12" fill="white"/>
</clipPath>
</defs>
</svg>
