<svg width="22" height="17" viewBox="0 0 22 17" fill="none" xmlns="http://www.w3.org/2000/svg">
<path d="M22 13.9233L22 2.78647C22 1.25189 20.7481 7.62939e-06 19.2135 7.62939e-06L10.2125 7.62939e-06C8.67795 7.62939e-06 7.42607 1.25189 7.42607 2.78647L7.42607 4.59026C7.42607 4.89538 7.67285 5.14217 7.97797 5.14217C8.28309 5.14217 8.52988 4.89538 8.52988 4.59026L8.52988 2.78647C8.52988 1.85765 9.28819 1.09934 10.217 1.09934L19.2135 1.09934C20.1424 1.09934 20.9007 1.85765 20.9007 2.78647L20.9007 13.9233C20.9007 14.8521 20.1424 15.6105 19.2135 15.6105L10.2125 15.6105C9.2837 15.6105 8.52539 14.8521 8.52539 13.9233V12.1195C8.52539 11.8144 8.2786 11.5676 7.97348 11.5676C7.66837 11.5676 7.42158 11.8144 7.42158 12.1195V13.9233C7.42158 15.4579 8.67347 16.7098 10.208 16.7098L19.2135 16.7098C20.7481 16.7098 22 15.4624 22 13.9233Z" fill="white"/>
<path d="M4.70686 4.20439C4.59917 4.0967 4.46007 4.04285 4.31649 4.04285C4.1729 4.04285 4.0338 4.0967 3.92611 4.20439L0.161477 7.96902C-0.0539017 8.1844 -0.0539017 8.5299 0.161477 8.74528L3.92611 12.5099C4.14149 12.7253 4.48699 12.7253 4.70237 12.5099C4.91775 12.2945 4.91775 11.949 4.70237 11.7337L1.87553 8.90681L12.1913 8.90681C12.4964 8.90681 12.7432 8.66003 12.7432 8.35491C12.7432 8.04979 12.4964 7.803 12.1913 7.803L1.88002 7.803L4.70686 4.97616C4.92224 4.76527 4.92224 4.41528 4.70686 4.20439Z" fill="white"/>
</svg>
