<svg width="18" height="18" viewBox="0 0 18 18" fill="none" xmlns="http://www.w3.org/2000/svg">
    <g clip-path="url(#clip0_507_606)">
        <path
            d="M8.99975 0C4.03733 0 0.000244141 4.0374 0.000244141 9C0.000244141 13.9626 4.03733 18 8.99975 18C13.9624 18 18.0001 13.9626 18.0001 9C18.0001 4.0374 13.9624 0 8.99975 0ZM9 16C4.68855 16 2 13.3118 2 9C2 4.68823 4.68855 2 9 2C13.3119 2 16 4.68823 16 9C16.0001 13.3117 13.3119 16 9 16Z"
            fill="#FFF" />
        <path
            d="M12.145 8H5.81599C5.50314 8 5 8.44789 5 9C5 9.55218 5.45971 9.99962 5.77256 9.99962H12.145C12.4579 9.99962 13 9.55196 13 8.99985C13 8.44774 12.4579 8 12.145 8Z"
            fill="#FFFFFF" />
    </g>
    <defs>
        <clipPath id="clip0_507_606">
            <rect width="18" height="18" fill="white" />
        </clipPath>
    </defs>
</svg>
    