<svg width="16" height="16" viewBox="0 0 16 16" fill="none" xmlns="http://www.w3.org/2000/svg">
<rect width="16" height="16" rx="4" fill="#A2A2A2"/>
<path d="M6.15398 11L4.71398 8.498H3.93098V11H2.90498V4.745H5.06498C5.54498 4.745 5.94998 4.829 6.27998 4.997C6.61598 5.165 6.86498 5.39 7.02698 5.672C7.19498 5.954 7.27898 6.269 7.27898 6.617C7.27898 7.025 7.15898 7.397 6.91898 7.733C6.68498 8.063 6.32198 8.288 5.82998 8.408L7.37798 11H6.15398ZM3.93098 7.679H5.06498C5.44898 7.679 5.73698 7.583 5.92898 7.391C6.12698 7.199 6.22598 6.941 6.22598 6.617C6.22598 6.293 6.12998 6.041 5.93798 5.861C5.74598 5.675 5.45498 5.582 5.06498 5.582H3.93098V7.679ZM12.8125 9.218C12.8125 9.518 12.7375 9.8 12.5875 10.064C12.4435 10.328 12.2275 10.55 11.9395 10.73C11.6575 10.91 11.3215 11.018 10.9315 11.054V11.783H10.3465V11.054C9.7825 11 9.3265 10.823 8.9785 10.523C8.6305 10.223 8.4565 9.827 8.4565 9.335H9.5545C9.5725 9.569 9.6475 9.764 9.7795 9.92C9.9115 10.07 10.1005 10.166 10.3465 10.208V8.228C9.9445 8.126 9.6175 8.024 9.3655 7.922C9.1135 7.814 8.8975 7.646 8.7175 7.418C8.5435 7.19 8.4565 6.878 8.4565 6.482C8.4565 5.984 8.6305 5.573 8.9785 5.249C9.3265 4.919 9.7825 4.727 10.3465 4.673V3.944H10.9315V4.673C11.4595 4.721 11.8825 4.889 12.2005 5.177C12.5245 5.459 12.7075 5.849 12.7495 6.347H11.6515C11.6335 6.161 11.5615 5.996 11.4355 5.852C11.3095 5.702 11.1415 5.6 10.9315 5.546V7.49C11.3335 7.586 11.6605 7.688 11.9125 7.796C12.1645 7.898 12.3775 8.063 12.5515 8.291C12.7255 8.513 12.8125 8.822 12.8125 9.218ZM9.5005 6.428C9.5005 6.674 9.5725 6.866 9.7165 7.004C9.8665 7.142 10.0765 7.253 10.3465 7.337V5.519C10.0885 5.549 9.8815 5.642 9.7255 5.798C9.5755 5.954 9.5005 6.164 9.5005 6.428ZM10.9315 10.208C11.1955 10.166 11.4025 10.061 11.5525 9.893C11.7025 9.719 11.7775 9.512 11.7775 9.272C11.7775 9.032 11.7025 8.846 11.5525 8.714C11.4085 8.576 11.2015 8.465 10.9315 8.381V10.208Z" fill="white"/>
</svg>
