<svg width="12" height="12" viewBox="0 0 12 12" fill="none" xmlns="http://www.w3.org/2000/svg">
<path d="M9.12599 0H2.87399C2.74199 0 2.63495 0.107016 2.63495 0.239039V11.761C2.63495 11.893 2.74199 12 2.87399 12H9.12599C9.25799 12 9.36503 11.893 9.36503 11.761V0.239039C9.36503 0.107016 9.25799 0 9.12599 0ZM6.98263 11.5219H6.23903V10.7908C6.23903 10.6588 6.13199 10.5518 5.99999 10.5518C5.86799 10.5518 5.76095 10.6588 5.76095 10.7908V11.5219H5.01737V9.52076H6.98263V11.5219ZM8.88697 11.5219H8.88695H7.46068V9.28172C7.46068 9.1497 7.35364 9.04268 7.22164 9.04268H4.77833C4.64633 9.04268 4.53929 9.1497 4.53929 9.28172V11.5219H3.11303V0.478078H8.88697V11.5219Z" fill="black"/>
<path d="M5.41311 1.01803H3.92794C3.79594 1.01803 3.6889 1.12505 3.6889 1.25707V2.74223C3.6889 2.87426 3.79594 2.98127 3.92794 2.98127H5.41311C5.54511 2.98127 5.65215 2.87426 5.65215 2.74223V1.25709C5.65215 1.12507 5.54511 1.01803 5.41311 1.01803ZM5.17407 2.5032H4.16701V1.49613H5.17407V2.5032Z" fill="black"/>
<path d="M8.07204 1.01803H6.58688C6.45488 1.01803 6.34784 1.12505 6.34784 1.25707V2.74223C6.34784 2.87426 6.45486 2.98127 6.58688 2.98127H8.07204C8.20404 2.98127 8.31108 2.87426 8.31108 2.74223V1.25709C8.31108 1.12507 8.20404 1.01803 8.07204 1.01803ZM7.833 2.5032H6.82594V1.49613H7.833V2.5032Z" fill="black"/>
<path d="M5.41311 3.65299H3.92794C3.79594 3.65299 3.6889 3.76001 3.6889 3.89203V5.3772C3.6889 5.50922 3.79594 5.61623 3.92794 5.61623H5.41311C5.54511 5.61623 5.65215 5.50922 5.65215 5.3772V3.89203C5.65215 3.76001 5.54511 3.65299 5.41311 3.65299ZM5.17407 5.13816H4.16701V4.13109H5.17407V5.13816Z" fill="black"/>
<path d="M8.07204 3.65299H6.58688C6.45488 3.65299 6.34784 3.76001 6.34784 3.89203V5.3772C6.34784 5.50922 6.45486 5.61623 6.58688 5.61623H8.07204C8.20404 5.61623 8.31108 5.50922 8.31108 5.3772V3.89203C8.31108 3.76001 8.20404 3.65299 8.07204 3.65299ZM7.833 5.13816H6.82594V4.13109H7.833V5.13816Z" fill="black"/>
<path d="M5.41311 6.28795H3.92794C3.79594 6.28795 3.6889 6.39497 3.6889 6.52699V8.01216C3.6889 8.14418 3.79594 8.2512 3.92794 8.2512H5.41311C5.54511 8.2512 5.65215 8.14418 5.65215 8.01216V6.52699C5.65215 6.39497 5.54511 6.28795 5.41311 6.28795ZM5.17407 7.77312H4.16701V6.76605H5.17407V7.77312Z" fill="black"/>
<path d="M8.07204 6.28795H6.58688C6.45488 6.28795 6.34784 6.39497 6.34784 6.52699V8.01216C6.34784 8.14418 6.45486 8.2512 6.58688 8.2512H8.07204C8.20404 8.2512 8.31108 8.14418 8.31108 8.01216V6.52699C8.31108 6.39497 8.20404 6.28795 8.07204 6.28795ZM7.833 7.77312H6.82594V6.76605H7.833V7.77312Z" fill="black"/>
<path d="M6.00003 9.8092C5.86803 9.8092 5.76099 9.91622 5.76099 10.0482V10.0722C5.76099 10.2042 5.86803 10.3112 6.00003 10.3112C6.13203 10.3112 6.23906 10.2042 6.23906 10.0722V10.0482C6.23906 9.91624 6.13203 9.8092 6.00003 9.8092Z" fill="black"/>
</svg>
