<svg width="26" height="26" viewBox="0 0 26 26" fill="none" xmlns="http://www.w3.org/2000/svg">
<rect width="26" height="26" rx="5" fill="#4B4EFF"/>
<g clip-path="url(#clip0_1023_523)">
<path d="M19.0523 4.00008C18.898 4.00008 18.7494 4.05702 18.6384 4.15918L18.4891 4.29668L17.1398 4.25972C16.6303 4.24864 16.2137 4.6245 16.1996 5.10974L16.1794 5.79497L15.4933 5.77618C15.4846 5.77595 15.4757 5.77584 15.4668 5.77584C14.9682 5.77584 14.5669 6.14946 14.5531 6.62642L14.5331 7.31132L13.8469 7.29253C13.8378 7.2923 13.8294 7.29219 13.821 7.29219C13.3222 7.29219 12.9206 7.66586 12.9068 8.14288L12.8666 9.5111C12.7423 9.63076 12.5244 9.82609 12.2902 10.0304C12.0587 9.90429 11.7946 9.83566 11.5244 9.83566C11.1222 9.83566 10.7407 9.98306 10.4503 10.2507C10.4385 10.2616 10.427 10.273 10.4162 10.2848C10.3875 10.3162 10.3564 10.3509 10.3248 10.3877C10.0911 10.3621 9.85553 10.3491 9.62061 10.3491C7.98439 10.3491 6.44633 10.9553 5.28964 12.0562C2.90345 14.3269 2.90345 18.0217 5.28964 20.2925C6.44645 21.3934 7.98463 21.9996 9.6209 21.9996C11.2572 21.9996 12.7953 21.3934 13.9521 20.2925C15.3608 18.952 15.988 17.0688 15.6589 15.2086C15.8147 14.979 15.9023 14.7118 15.9104 14.4317C15.9173 14.1916 15.866 13.9585 15.7624 13.7477L22.2811 7.53455C22.3876 7.43295 22.4493 7.29675 22.4535 7.15362L22.4994 5.59311C22.5232 4.76712 21.8463 4.0762 20.9902 4.05257L19.0693 4.00025C19.0637 4.00014 19.058 4.00008 19.0523 4.00008ZM18.7229 5.42856C18.8773 5.42856 19.0259 5.37157 19.1368 5.2694L19.2862 5.1319L20.9559 5.17742C21.1582 5.18298 21.3183 5.35559 21.3123 5.56211L21.2728 6.8995L14.657 13.2053C14.5677 13.2905 14.5095 13.4005 14.4908 13.5192L14.468 13.664C14.4417 13.832 14.4968 14.0024 14.6182 14.1274C14.6888 14.2002 14.7261 14.2974 14.7232 14.4008C14.7202 14.5014 14.6785 14.5947 14.6057 14.6635C14.4628 14.7984 14.4019 14.9929 14.4442 15.1799C14.7998 16.751 14.3011 18.3655 13.1103 19.4988C12.1781 20.3859 10.9389 20.8745 9.62085 20.8745C8.30281 20.8745 7.06369 20.3859 6.13141 19.4988C4.20516 17.6657 4.20516 14.6831 6.13141 12.8501C7.06357 11.9629 8.30269 11.4744 9.62067 11.4744C9.93606 11.4744 10.2526 11.5033 10.5618 11.5601C10.8187 11.6075 11.078 11.4897 11.2001 11.2704C11.2343 11.209 11.222 11.0402 11.509 10.9933C11.6051 10.9776 11.713 10.999 11.7817 11.0682L11.8586 11.1508C11.9633 11.2633 12.111 11.3316 12.269 11.3404C12.4279 11.349 12.5823 11.2979 12.7002 11.1979C12.7121 11.1877 12.9952 10.9474 13.2838 10.6921C13.916 10.1326 14.0406 9.99977 14.0483 9.73411L14.0867 8.42485L15.0931 8.45242C15.252 8.45714 15.4036 8.40145 15.5181 8.29894C15.6328 8.19638 15.6996 8.05484 15.7039 7.90558L15.7331 6.90845L16.7392 6.93601C16.8982 6.94085 17.0497 6.8851 17.1642 6.78254C17.2788 6.68004 17.3456 6.53854 17.35 6.38935L17.3794 5.39193L18.7057 5.42827C18.7115 5.4285 18.7172 5.42856 18.7229 5.42856Z" fill="white"/>
<path d="M8.54146 15.2248C7.98544 15.2248 7.46286 15.4307 7.06997 15.8046C6.2605 16.575 6.26056 17.8284 7.06997 18.5986C7.46286 18.9725 7.98556 19.1785 8.54164 19.1785C9.09771 19.1785 9.62041 18.9726 10.0133 18.5986C10.8227 17.8284 10.8225 16.575 10.0131 15.8048C9.6203 15.4308 9.09765 15.2248 8.54146 15.2248ZM8.54164 18.0533C8.3038 18.0533 8.0801 17.965 7.91169 17.8047C7.56221 17.4722 7.56221 16.931 7.91175 16.5984C8.08004 16.4382 8.30374 16.35 8.54146 16.35C8.77929 16.35 9.00293 16.4383 9.17135 16.5985C9.52089 16.9312 9.52095 17.4722 9.17159 17.8047C9.00323 17.965 8.77947 18.0533 8.54164 18.0533Z" fill="white"/>
<path d="M19.6331 6.08388C19.4807 6.08388 19.3283 6.13907 19.2122 6.24956L13.9449 11.2622C13.7136 11.4824 13.7144 11.8386 13.9468 12.0579C14.1792 12.277 14.5552 12.2764 14.7867 12.056L20.0539 7.04338C20.2853 6.82318 20.2845 6.467 20.052 6.24776C19.9362 6.13851 19.7846 6.08388 19.6331 6.08388Z" fill="white"/>
</g>
<defs>
<clipPath id="clip0_1023_523">
<rect width="19" height="18" fill="white" transform="matrix(1 0 0 -1 3.5 22)"/>
</clipPath>
</defs>
</svg>
