<svg width="26" height="27" viewBox="0 0 26 27" fill="none" xmlns="http://www.w3.org/2000/svg">
<rect y="0.899536" width="26" height="26" rx="5" fill="#4B4EFF"/>
<path d="M20.3333 4.73285H9.33333C8.32225 4.73285 7.5 5.5551 7.5 6.56618V17.5662C7.5 18.5773 8.32225 19.3995 9.33333 19.3995H20.3333C21.3444 19.3995 22.1667 18.5773 22.1667 17.5662V6.56618C22.1667 5.5551 21.3444 4.73285 20.3333 4.73285ZM9.33333 17.5662V6.56618H20.3333L20.3352 17.5662H9.33333Z" fill="white"/>
<path d="M5.66683 10.2329H3.8335V21.2329C3.8335 22.244 4.65575 23.0662 5.66683 23.0662H16.6668V21.2329H5.66683V10.2329ZM13.8554 13.4586L12.2732 11.8765L10.9771 13.1726L13.9782 16.1738L19.2051 9.9038L17.7952 8.72864L13.8554 13.4586Z" fill="white"/>
</svg>
