<svg width="26" height="26" viewBox="0 0 26 26" fill="none" xmlns="http://www.w3.org/2000/svg">
  <rect width="26" height="26" rx="5" fill="#4B4EFF"/>
  <path d="M20.2494 6.03829H17.5907V3.85218C17.5907 3.38156 17.2091 3 16.7385 3H10.261C9.79043 3 9.40887 3.38156 9.40887 3.85218V6.03829H6.75013C6.27951 6.03829 5.89795 6.41985 5.89795 6.89047C5.89795 7.36109 6.27951 7.74265 6.75013 7.74265H6.85381V21.1478C6.85381 21.6184 7.23537 22 7.70599 22H19.2935C19.7641 22 20.1457 21.6184 20.1457 21.1478V7.74269H20.2494C20.72 7.74269 21.1015 7.36113 21.1015 6.89051C21.1015 6.41989 20.72 6.03829 20.2494 6.03829ZM15.8862 4.7044V6.03829H11.1133V4.7044H15.8862ZM18.4413 20.2956H8.55821V7.74269H18.4413V20.2956V20.2956Z" fill="white"/>
  <path d="M10.8297 18.3625C11.3003 18.3625 11.6819 17.9809 11.6819 17.5103V11.3263C11.6819 10.8557 11.3003 10.4741 10.8297 10.4741C10.3591 10.4741 9.97754 10.8557 9.97754 11.3263V17.5103C9.97754 17.9809 10.3591 18.3625 10.8297 18.3625Z" fill="white"/>
  <path d="M13.4996 18.3625C13.9703 18.3625 14.3518 17.9809 14.3518 17.5103V11.3263C14.3518 10.8557 13.9703 10.4741 13.4996 10.4741C13.029 10.4741 12.6475 10.8557 12.6475 11.3263V17.5103C12.6475 17.9809 13.029 18.3625 13.4996 18.3625Z" fill="white"/>
  <path d="M16.1701 18.3625C16.6407 18.3625 17.0222 17.9809 17.0222 17.5103V11.3263C17.0222 10.8557 16.6407 10.4741 16.1701 10.4741C15.6994 10.4741 15.3179 10.8557 15.3179 11.3263V17.5103C15.3179 17.9809 15.6994 18.3625 16.1701 18.3625Z" fill="white"/>
</svg>
