<svg width="32" height="32" viewBox="0 0 32 32" fill="none" xmlns="http://www.w3.org/2000/svg">
<path d="M13.892 19.8721C15.3487 19.2113 16.5351 18.0715 17.2538 16.6425C17.9724 15.2135 18.18 13.5814 17.842 12.018C17.5039 10.4546 16.6406 9.05409 15.3958 8.04964C14.1509 7.04519 12.5996 6.49737 11.0001 6.49736C9.40054 6.49735 7.84923 7.04516 6.60438 8.04959C5.35952 9.05403 4.49621 10.4545 4.15815 12.0179C3.82008 13.5813 4.02765 15.2134 4.7463 16.6424C5.46495 18.0714 6.65134 19.2112 8.10799 19.8721C5.47015 20.5592 3.16109 22.1587 1.59065 24.3867C1.55273 24.4404 1.52576 24.501 1.51129 24.5651C1.49682 24.6293 1.49513 24.6956 1.50633 24.7604C1.51752 24.8251 1.54137 24.887 1.57652 24.9426C1.61167 24.9981 1.65742 25.0462 1.71116 25.084C1.7649 25.1219 1.82558 25.1487 1.88972 25.1631C1.95385 25.1775 2.02019 25.1791 2.08494 25.1678C2.14969 25.1565 2.21157 25.1325 2.26706 25.0973C2.32254 25.062 2.37053 25.0162 2.40828 24.9624C3.37731 23.5839 4.66378 22.4589 6.15908 21.6822C7.65438 20.9055 9.31461 20.5001 10.9996 20.5C12.6846 20.4999 14.3448 20.9053 15.8402 21.6819C17.3355 22.4584 18.6221 23.5834 19.5912 24.9618C19.6677 25.0698 19.7839 25.1431 19.9144 25.1656C20.0449 25.1881 20.1789 25.1579 20.2872 25.0817C20.3954 25.0054 20.469 24.8894 20.4918 24.759C20.5146 24.6286 20.4848 24.4944 20.4088 24.386C18.8384 22.1584 16.5296 20.5591 13.892 19.8721ZM5.00002 13.5C5.00002 12.3133 5.35191 11.1533 6.0112 10.1666C6.67049 9.17988 7.60756 8.41085 8.70392 7.95672C9.80027 7.5026 11.0067 7.38378 12.1706 7.61529C13.3344 7.8468 14.4035 8.41824 15.2427 9.25736C16.0818 10.0965 16.6532 11.1656 16.8847 12.3295C17.1162 13.4933 16.9974 14.6997 16.5433 15.7961C16.0892 16.8925 15.3201 17.8295 14.3334 18.4888C13.3467 19.1481 12.1867 19.5 11 19.5C9.40927 19.4982 7.88419 18.8655 6.75936 17.7407C5.63453 16.6158 5.00182 15.0907 5.00002 13.5ZM30.4782 25.0827C30.4245 25.1205 30.3639 25.1474 30.2998 25.1618C30.2357 25.1762 30.1695 25.1778 30.1048 25.1666C30.0401 25.1554 29.9782 25.1315 29.9227 25.0964C29.8673 25.0612 29.8192 25.0155 29.7815 24.9618C28.8112 23.5846 27.5245 22.4606 26.0294 21.6842C24.5344 20.9077 22.8748 20.5016 21.1902 20.5C21.0576 20.5 20.9304 20.4473 20.8367 20.3536C20.7429 20.2598 20.6902 20.1326 20.6902 20C20.6902 19.8674 20.7429 19.7402 20.8367 19.6464C20.9304 19.5527 21.0576 19.5 21.1902 19.5C22.047 19.4991 22.8938 19.3147 23.6734 18.9593C24.453 18.6038 25.1474 18.0854 25.71 17.4391C26.2725 16.7928 26.6901 16.0335 26.9346 15.2123C27.1791 14.391 27.2449 13.527 27.1275 12.6782C27.0102 11.8295 26.7124 11.0157 26.2542 10.2916C25.796 9.56758 25.1881 8.95006 24.4713 8.48062C23.7545 8.01119 22.9455 7.70072 22.0986 7.57011C21.2518 7.43951 20.3868 7.49179 19.5619 7.72345C19.4986 7.74142 19.4325 7.74673 19.3671 7.73908C19.3018 7.73143 19.2386 7.71097 19.1812 7.67886C19.1238 7.64676 19.0733 7.60365 19.0326 7.55199C18.9919 7.50034 18.9618 7.44116 18.944 7.37785C18.9262 7.31454 18.921 7.24833 18.9288 7.18303C18.9367 7.11773 18.9573 7.05461 18.9895 6.99729C19.0218 6.93997 19.065 6.88958 19.1168 6.849C19.1685 6.80842 19.2278 6.77845 19.2912 6.7608C20.9899 6.28184 22.8069 6.46232 24.3782 7.26609C25.9496 8.06986 27.1592 9.43758 27.765 11.0953C28.3708 12.7531 28.3279 14.5785 27.645 16.206C26.9621 17.8335 25.6896 19.143 24.0822 19.8721C26.7198 20.5591 29.0286 22.1584 30.5991 24.386C30.6754 24.4944 30.7056 24.6287 30.6829 24.7594C30.6602 24.89 30.5866 25.0063 30.4782 25.0827Z" fill="white"/>
</svg>
