<svg width="70" height="25" viewBox="0 0 70 25" fill="none" xmlns="http://www.w3.org/2000/svg">
<rect width="70" height="25" rx="5" fill="#CCECC9"/>
<path d="M13.6622 17L10.5542 8.6H11.9102L14.4302 15.68L16.9622 8.6H18.3062L15.1982 17H13.6622ZM20.6345 17.144C20.1305 17.144 19.7145 17.06 19.3865 16.892C19.0585 16.724 18.8145 16.504 18.6545 16.232C18.4945 15.952 18.4145 15.648 18.4145 15.32C18.4145 14.744 18.6385 14.288 19.0865 13.952C19.5345 13.616 20.1745 13.448 21.0065 13.448H22.5665V13.34C22.5665 12.876 22.4385 12.528 22.1825 12.296C21.9345 12.064 21.6105 11.948 21.2105 11.948C20.8585 11.948 20.5505 12.036 20.2865 12.212C20.0305 12.38 19.8745 12.632 19.8185 12.968H18.5465C18.5865 12.536 18.7305 12.168 18.9785 11.864C19.2345 11.552 19.5545 11.316 19.9385 11.156C20.3305 10.988 20.7585 10.904 21.2225 10.904C22.0545 10.904 22.6985 11.124 23.1545 11.564C23.6105 11.996 23.8385 12.588 23.8385 13.34V17H22.7345L22.6265 15.98C22.4585 16.308 22.2145 16.584 21.8945 16.808C21.5745 17.032 21.1545 17.144 20.6345 17.144ZM20.8865 16.112C21.2305 16.112 21.5185 16.032 21.7505 15.872C21.9905 15.704 22.1745 15.484 22.3025 15.212C22.4385 14.94 22.5225 14.64 22.5545 14.312H21.1385C20.6345 14.312 20.2745 14.4 20.0585 14.576C19.8505 14.752 19.7465 14.972 19.7465 15.236C19.7465 15.508 19.8465 15.724 20.0465 15.884C20.2545 16.036 20.5345 16.112 20.8865 16.112ZM25.3216 17V8.36H26.5936V17H25.3216ZM28.9244 9.92C28.6844 9.92 28.4844 9.848 28.3244 9.704C28.1724 9.552 28.0964 9.364 28.0964 9.14C28.0964 8.916 28.1724 8.732 28.3244 8.588C28.4844 8.436 28.6844 8.36 28.9244 8.36C29.1644 8.36 29.3604 8.436 29.5124 8.588C29.6724 8.732 29.7524 8.916 29.7524 9.14C29.7524 9.364 29.6724 9.552 29.5124 9.704C29.3604 9.848 29.1644 9.92 28.9244 9.92ZM28.2884 17V11.048H29.5604V17H28.2884ZM33.9515 17.144C33.3755 17.144 32.8675 17.008 32.4275 16.736C31.9875 16.464 31.6435 16.092 31.3955 15.62C31.1475 15.148 31.0235 14.612 31.0235 14.012C31.0235 13.412 31.1475 12.88 31.3955 12.416C31.6435 11.944 31.9875 11.576 32.4275 11.312C32.8755 11.04 33.3875 10.904 33.9635 10.904C34.4355 10.904 34.8475 10.996 35.1995 11.18C35.5595 11.364 35.8395 11.624 36.0395 11.96V8.36H37.3115V17H36.1715L36.0395 16.076C35.8475 16.356 35.5835 16.604 35.2475 16.82C34.9115 17.036 34.4795 17.144 33.9515 17.144ZM34.1795 16.04C34.7235 16.04 35.1675 15.852 35.5115 15.476C35.8635 15.1 36.0395 14.616 36.0395 14.024C36.0395 13.424 35.8635 12.94 35.5115 12.572C35.1675 12.196 34.7235 12.008 34.1795 12.008C33.6355 12.008 33.1875 12.196 32.8355 12.572C32.4835 12.94 32.3075 13.424 32.3075 14.024C32.3075 14.416 32.3875 14.764 32.5475 15.068C32.7075 15.372 32.9275 15.612 33.2075 15.788C33.4955 15.956 33.8195 16.04 34.1795 16.04ZM40.9313 17.144C40.4273 17.144 40.0113 17.06 39.6833 16.892C39.3553 16.724 39.1113 16.504 38.9513 16.232C38.7913 15.952 38.7113 15.648 38.7113 15.32C38.7113 14.744 38.9353 14.288 39.3833 13.952C39.8313 13.616 40.4713 13.448 41.3033 13.448H42.8633V13.34C42.8633 12.876 42.7353 12.528 42.4793 12.296C42.2313 12.064 41.9073 11.948 41.5073 11.948C41.1553 11.948 40.8473 12.036 40.5833 12.212C40.3273 12.38 40.1713 12.632 40.1153 12.968H38.8433C38.8833 12.536 39.0273 12.168 39.2753 11.864C39.5313 11.552 39.8513 11.316 40.2353 11.156C40.6273 10.988 41.0553 10.904 41.5193 10.904C42.3513 10.904 42.9953 11.124 43.4513 11.564C43.9073 11.996 44.1353 12.588 44.1353 13.34V17H43.0313L42.9233 15.98C42.7553 16.308 42.5113 16.584 42.1913 16.808C41.8713 17.032 41.4513 17.144 40.9313 17.144ZM41.1833 16.112C41.5273 16.112 41.8153 16.032 42.0473 15.872C42.2873 15.704 42.4713 15.484 42.5993 15.212C42.7353 14.94 42.8193 14.64 42.8513 14.312H41.4353C40.9313 14.312 40.5713 14.4 40.3553 14.576C40.1473 14.752 40.0433 14.972 40.0433 15.236C40.0433 15.508 40.1433 15.724 40.3433 15.884C40.5513 16.036 40.8313 16.112 41.1833 16.112ZM48.3305 17.144C47.7545 17.144 47.2465 17.008 46.8065 16.736C46.3665 16.464 46.0225 16.092 45.7745 15.62C45.5265 15.148 45.4025 14.612 45.4025 14.012C45.4025 13.412 45.5265 12.88 45.7745 12.416C46.0225 11.944 46.3665 11.576 46.8065 11.312C47.2545 11.04 47.7665 10.904 48.3425 10.904C48.8145 10.904 49.2265 10.996 49.5785 11.18C49.9385 11.364 50.2185 11.624 50.4185 11.96V8.36H51.6905V17H50.5505L50.4185 16.076C50.2265 16.356 49.9625 16.604 49.6265 16.82C49.2905 17.036 48.8585 17.144 48.3305 17.144ZM48.5585 16.04C49.1025 16.04 49.5465 15.852 49.8905 15.476C50.2425 15.1 50.4185 14.616 50.4185 14.024C50.4185 13.424 50.2425 12.94 49.8905 12.572C49.5465 12.196 49.1025 12.008 48.5585 12.008C48.0145 12.008 47.5665 12.196 47.2145 12.572C46.8625 12.94 46.6865 13.424 46.6865 14.024C46.6865 14.416 46.7665 14.764 46.9265 15.068C47.0865 15.372 47.3065 15.612 47.5865 15.788C47.8745 15.956 48.1985 16.04 48.5585 16.04ZM56.0782 17.144C55.5102 17.144 54.9982 17.016 54.5422 16.76C54.0942 16.496 53.7382 16.132 53.4742 15.668C53.2102 15.196 53.0782 14.648 53.0782 14.024C53.0782 13.4 53.2102 12.856 53.4742 12.392C53.7462 11.92 54.1102 11.556 54.5662 11.3C55.0222 11.036 55.5302 10.904 56.0902 10.904C56.6582 10.904 57.1662 11.036 57.6142 11.3C58.0702 11.556 58.4302 11.92 58.6942 12.392C58.9662 12.856 59.1022 13.4 59.1022 14.024C59.1022 14.648 58.9662 15.196 58.6942 15.668C58.4302 16.132 58.0702 16.496 57.6142 16.76C57.1582 17.016 56.6462 17.144 56.0782 17.144ZM56.0782 16.052C56.3822 16.052 56.6622 15.976 56.9182 15.824C57.1822 15.672 57.3942 15.448 57.5542 15.152C57.7142 14.848 57.7942 14.472 57.7942 14.024C57.7942 13.576 57.7142 13.204 57.5542 12.908C57.4022 12.604 57.1942 12.376 56.9302 12.224C56.6742 12.072 56.3942 11.996 56.0902 11.996C55.7862 11.996 55.5022 12.072 55.2382 12.224C54.9822 12.376 54.7742 12.604 54.6142 12.908C54.4542 13.204 54.3742 13.576 54.3742 14.024C54.3742 14.472 54.4542 14.848 54.6142 15.152C54.7742 15.448 54.9822 15.672 55.2382 15.824C55.4942 15.976 55.7742 16.052 56.0782 16.052Z" fill="black"/>
</svg>
